<svg enable-background="new 0 0 90 90" viewBox="0 0 90 90" xmlns="http://www.w3.org/2000/svg"><circle clip-rule="evenodd" cx="45" cy="45" fill="#f1ae2a" fill-rule="evenodd" r="45"/><path d="m28 40c.2 0 .5-.1.5-.3s.1-.5-.1-.6l-1.2-2c4.1 2.3 3.8 2.2 4 2.2.3 0 .5-.2.5-.4s-.1-.5-.3-.7l-3.7-2.1h2.3c.2 0 .5-.1.5-.3.1-.2.1-.4 0-.6.1-.2-.1-.3-.4-.3h-4.5c-.2 0-.4.1-.5.3s-.1.4 0 .6l2.2 3.9c.2.2.4.3.7.3zm3.5 10.7-3.6 2.2 1.1-2c.1-.3.1-.6-.2-.8-.3-.1-.6-.1-.8.2l-2.2 3.9c-.1.2-.1.4 0 .6s.3.3.5.3h4.5c.2 0 .5-.1.5-.3s.1-.4 0-.6-.3-.2-.5-.2h-2.3l3.7-2.1c.2-.1.3-.3.3-.5s-.1-.4-.3-.5c-.3-.3-.5-.3-.7-.2zm33-15.7h-4.5c-.2 0-.5.1-.6.3s-.1.4 0 .6.3.3.6.3h2.3l-3.7 2.1c-.2.1-.3.4-.3.7s.3.4.6.4c.2 0 0 .1 4.1-2.2l-1.2 2c-.1.3-.1.6.2.8h.3c.1-.1.3-.1.3-.3l2.2-3.9c.1-.2.1-.4 0-.5 0-.1-.1-.3-.3-.3zm-2.4 15.3c-.2-.3-.5-.3-.7-.2-.3.1-.3.5-.3.7l1.1 2-3.7-2.1c-.2-.1-.4-.1-.6-.1-.2.1-.3.3-.3.5s.1.4.3.5l3.7 2.1h-2.3c-.2 0-.5.1-.5.3s-.1.5 0 .6.3.3.5.3h4.5c.2 0 .4-.1.5-.3s.1-.4 0-.6zm-20.1-19.9c.3.1.6.1.7-.2l1.1-2.1v4.5c0 .3.3.6.6.6s.7-.2.7-.6v-4.6l1.1 2.1c.1.2.3.3.5.3s.4-.1.5-.3.1-.4 0-.6l-2.2-4.2c-.1-.2-.3-.3-.5-.3s-.4.1-.5.3l-2.2 4.1c-.2.4-.1.8.2 1zm6.2 29.7c-.3-.1-.6-.1-.8.2l-1.1 2v-4.3c-.1-.3-.3-.5-.5-.5s-.5.2-.5.5v4.3l-1.1-2c-.1-.3-.5-.3-.8-.2s-.3.5-.2.8l2.2 3.9c.1.2.3.3.5.3s.4-.1.5-.3l2.2-3.9c.1-.1.1-.3.1-.5-.3-.1-.4-.3-.5-.3zm5.3-23.7c-3.6-3.5-8.9-4.3-13.3-2-4.4 2.2-6.9 7-6.4 12 .6 5 4.2 9.1 9 10.1 4.8 1.1 9.8-.9 12.5-5.2.1-.2.2-.5.1-.7s-.3-.3-.5-.3c-.3 0-.5.1-.5.4-3 4.8-9.2 6.3-14 3.5s-6.6-9-4.2-14.1 8.5-7.2 13.6-5 7.6 8.2 5.6 13.5c-.1.3.1.6.4.7s.6 0 .7-.3c1.4-4.3.3-9.3-3-12.6zm-15.5 5.5c-.1-.1-.3-.1-.5 0s-.3.2-.3.3c-1.4 4.3.7 9.1 4.9 10.8 4.2 1.8 9 0 11-4.1s.6-9.1-3.3-11.4-8.9-1.2-11.4 2.5c-.2.2-.3.4-.1.7.1.2.3.4.5.4s.5-.1.6-.3c2.2-3.3 6.5-4.3 9.9-2.2 3.4 2 4.7 6.2 3 9.9s-5.8 5.2-9.5 3.7c-3.6-1.4-5.5-5.5-4.3-9.3.1-.1.1-.3-.1-.5-.2-.3-.3-.5-.4-.5z" fill="#fff"/></svg>