<svg enable-background="new 0 0 90 90" viewBox="0 0 90 90" xmlns="http://www.w3.org/2000/svg"><circle clip-rule="evenodd" cx="45" cy="45" fill="#e75228" fill-rule="evenodd" r="45"/><g fill="#fff" stroke="#e75228"><path d="m37.1 52.7c.5.5.5 1.4 0 1.9s-1.4.5-2 0l-8-8.2-.1-.2v-.1c0-.1 0-.1 0-.1v-.1-.1-.1-.1c0-.1 0-.1 0-.1 0-.1 0-.1 0-.1 0-.1 0-.1 0-.1v-.1c0-.1 0-.1 0-.1v-.1-.1-.1l.1-.1 8-8c.3-.3.6-.4.9-.4.5.1.9.4 1.1.9s.1 1-.2 1.4l-5.6 5.6h22.4c.6-.2 1.3 0 1.6.5s.4 1.2 0 1.7c-.3.6-1 .9-1.6.7h-22.3z"/><path d="m56.4 25.1h-10c-.6-.2-1.2 0-1.6.5-.3.5-.3 1.2 0 1.7s1 .7 1.6.5h10c2.6 0 4.7 2.1 4.7 4.8v24.7c0 2.7-2 4.8-4.7 4.8h-10.2c-.6-.2-1.2 0-1.6.5-.3.5-.3 1.2 0 1.7s1 .7 1.6.5h10.1c4.1 0 7.3-3.4 7.3-7.6v-24.6c.1-4.1-3.2-7.5-7.2-7.5z"/></g></svg>