<svg enable-background="new 0 0 90 90" viewBox="0 0 90 90" xmlns="http://www.w3.org/2000/svg"><circle clip-rule="evenodd" cx="45" cy="45" fill="#009fd6" fill-rule="evenodd" r="45"/><path d="m36.5 31.9h-.4c1.3-1.3 1.8-3.3 1.1-5.1s-2.3-3-4.1-3-3.4 1.2-4.1 3-.2 3.8 1.1 5.1h-.4c-2 0-3.6 1.7-3.6 3.9v3.5c0 .3.3.6.5.6h5.1c.3 0 .5-.3.5-.6 0-.1-.1-.3-.1-.4-.1-.1-.3-.2-.4-.2h-1.3v-1c0-.3-.3-.6-.6-.6-.1 0-.3.1-.4.2s-.1.3-.1.4v1h-2.1v-2.9c0-1.5 1.1-2.7 2.5-2.7h6.7c1.3 0 2.5 1.2 2.5 2.7v2.9h-2.1v-1c.1-.3-.1-.5-.3-.6s-.5-.1-.6 0-.3.4-.3.6v1h-1.3c-.1 0-.3.1-.4.2s-.1.3-.1.4c0 .3.3.6.5.6h5.1c.3 0 .5-.3.5-.6v-3.5c0-1-.4-2-1.1-2.7-.4-.8-1.3-1.2-2.3-1.2zm-6.6-3.4c0-1.4.8-2.7 2-3.2s2.6-.3 3.5.7 1.2 2.5.7 3.7c-.5 1.3-1.7 2.1-3 2.1-1.7.2-3.2-1.4-3.2-3.3zm-18.8 3.6h-.4c1-.9 1.5-2.1 1.5-3.4.1-1.7-.8-3.3-2.3-4.2s-3.3-.9-4.9 0c-1.5.9-2.4 2.5-2.3 4.2 0 1.3.5 2.5 1.5 3.4h-.3c-2.1 0-3.9 1.7-3.9 3.8v3.5c0 .1.1.3.2.4s.3.2.4.2h5.5c.1 0 .3-.1.4-.2s.2-.3.2-.4c0-.3-.3-.6-.6-.6h-1.4v-1c0-.1-.1-.3-.2-.4s-.3-.2-.4-.2c-.3 0-.6.3-.6.6v1h-2.3v-2.9c0-1.5 1.2-2.6 2.7-2.6h7.2c1.5 0 2.7 1.1 2.7 2.6v2.9h-2.2v-1c.1-.3-.1-.5-.3-.6s-.5-.1-.7 0-.3.4-.3.6v1h-1.3c-.3 0-.6.3-.6.6 0 .1.1.3.2.4s.2.2.4.2h5.5c.1 0 .3-.1.4-.2s.2-.3.2-.4v-3.5c0-2.2-1.8-3.8-4-3.8zm-7.1-3.4c0-1.4.9-2.6 2.1-3.1 1.4-.6 2.9-.3 3.9.7s1.3 2.5.7 3.7-1.8 2.1-3.2 2.1c-.9 0-1.8-.3-2.5-1-.6-.6-1-1.5-1-2.4zm19.6-10.1h-.1v-.9c0-.2.1-.4.3-.5 3.1-1.5 5.1-4.5 5.2-7.9s-1.7-6.7-4.7-8.3-6.7-1.3-9.4.7c-.3.2-.3.5-.1.8.1.1.2.2.4.3s.3 0 .4-.1c2.4-1.7 5.6-1.9 8.2-.5s4.1 4.1 4.1 7.1c-.1 2.9-1.8 5.6-4.4 6.9-.6.3-1 .9-1 1.5v1h-1.6v-8.9c0-.5.3-.8.7-.9s.9 0 1.1.3c.3.3.3.8 0 1.2-.2.3-.1.6.1.8.1.1.2.1.3.1.2 0 .3-.1.5-.2.3-.4.5-.8.5-1.3 0-1.2-.9-2.2-2.1-2.2-.6 0-1.1.3-1.5.7-.4-.5-1-.7-1.6-.7-.8 0-1.5.5-1.9 1.2-.3.7-.3 1.6.2 2.3.1.1.3.2.5.2.1 0 .3-.1.3-.1.1-.1.2-.2.2-.4 0-.1 0-.3-.1-.5-.3-.3-.3-.8 0-1.2s.7-.5 1.1-.3c.4.1.7.5.7.9v8.8h-1.9v-.9c0-.7-.4-1.3-1-1.5-2.1-.9-3.7-2.8-4.3-5.1s-.2-4.7 1.1-6.6c.2-.3.1-.6-.1-.8-.3-.2-.6-.1-.8.1-1.5 2.2-2 5-1.3 7.5s2.5 4.7 4.9 5.9c.2.1.3.3.3.5v.9h-.1c-.4 0-.7.1-1 .4s-.4.6-.4 1v.9c0 .5.3 1 .8 1.3v1.7c0 1.2.9 2.1 2.1 2.1h3.9c1.2 0 2.1-1 2.1-2.1v-1.7c.5-.2.8-.7.8-1.3v-.8c0-.3-.1-.7-.4-1-.1-.3-.7-.4-1-.4zm-7.2 1.4c0-.1.1-.2.2-.2h7.1c.1 0 .2.1.2.2v.9c0 .1-.1.2-.2.2h-7.1c-.1 0-.2-.1-.2-.2zm5.7 4.9h-3.9c-.5 0-1-.5-1-1v-1.6h5.8v1.6c0 .3-.1.5-.3.7s-.4.3-.6.3zm3.7-4.7c-.1.1-.2.3-.2.5s.1.3.2.5l2.7 2.7c.3.2.6.2.9 0s.3-.6 0-.9l-2.7-2.7c-.1-.1-.3-.2-.5-.2s-.2-.1-.4.1zm-14.6 3.6c.1 0 .3-.1.5-.2l2.7-2.7c.1-.1.2-.3.2-.4s-.1-.3-.2-.4c-.3-.3-.7-.3-.9 0l-2.7 2.6c-.2.3-.2.6 0 .9.1.1.2.2.4.2z" fill="#fff" transform="translate(25 25)"/></svg>