<svg enable-background="new 0 0 90 90" viewBox="0 0 90 90" xmlns="http://www.w3.org/2000/svg"><circle clip-rule="evenodd" cx="45" cy="45" fill="#c8da2d" fill-rule="evenodd" r="45"/><path d="m27 29.6c-.5.1-1 0-1.5-.1h-.3c-9.6-.6-18.6-5.6-24.9-13.8-.4-.5-.4-1.3 0-1.7 6.7-8.7 16.2-13.8 26.4-14h.3c10.3-.1 20 5.1 26.7 13.9.4.5.4 1.3 0 1.7-6.7 8.8-16.2 13.8-26.4 14-.1 0-.2 0-.3 0zm0-27c-.2 0-.5 0-.7 0-5.6.4-10 5.6-10 12.2s4.4 11.8 10.1 12.2h.3.4.7c5.7-.4 10.2-5.7 10.2-12.2-.2-6.7-5.1-12.2-11-12.2zm-9 1.5-.1.1c-5.9 2-11.3 5.7-15.2 10.7 4 5.1 9.4 8.8 15.4 10.7-2.5-2.7-4.1-6.5-4.1-10.7s1.5-8 4-10.8zm18.1.1c2.5 2.8 4 6.5 4 10.7s-1.6 8-4 10.7c6-1.9 11.3-5.6 15.3-10.7-4-5.1-9.4-8.8-15.3-10.7zm-9.1 5.6c-2.6.2-4.5 2.4-4.4 4.9-.1 2.6 1.8 4.8 4.4 4.9 2.6-.2 4.5-2.4 4.4-4.9.1-2.6-1.8-4.7-4.4-4.9m0 12.6c-3.7 0-6.7-3.4-6.7-7.6s3-7.6 6.7-7.6 6.7 3.4 6.7 7.6-3 7.7-6.7 7.6" fill="#fff" stroke="#c8da2d" stroke-width=".75" transform="translate(18 30)"/></svg>