<svg enable-background="new 0 0 90 90" viewBox="0 0 90 90" xmlns="http://www.w3.org/2000/svg"><circle clip-rule="evenodd" cx="45" cy="45" fill="#8dc63f" fill-rule="evenodd" r="45"/><path d="m39.4 19.4h-3.2v-7.9c0-.3-.3-.6-.6-.6s-.6.3-.6.6v7.8h-1.2v-18.1h1.2v7.8c0 .3.3.6.6.6s.6-.3.6-.6v-8.4c0-.3-.2-.5-.5-.6h-2.4c-.3 0-.6.3-.6.6v1.8h-7.9c-.3 0-.6.3-.6.6v1.8h-6.8c-.4.1-.6.5-.4.9l2.2 3.4-2.1 3.4c-.2.5 0 .8.5.9h9.7c.3 0 .6-.3.6-.6v-1.8h4.9v8.6h-3.1c-.3 0-.6.3-.6.6v4.3h-3c-.3 0-.6.3-.6.6s.3.6.6.6h3v13.4h-8.6v-13.6h3c.3 0 .6-.3.6-.6s-.3-.6-.6-.6h-3.5c-.3 0-.6.3-.6.6v4.3h-9.2c-.3 0-.6.3-.6.6v4.3h-3.4c-.3 0-.6.3-.6.6s.3.6.6.6h3.4v3.7h-8.4v-3.7h2.6c.3 0 .6-.3.6-.6s-.3-.6-.6-.6h-3.2c-.1 0-.3.1-.4.2s-.2.2-.2.4v4.7c0 .1.1.3.1.5s.3.1.5.1h38.8c.3 0 .6-.3.6-.6v-19.4c0-.3-.3-.6-.6-.6zm-12.8-7.3h-8l1.8-2.8c.1-.2.1-.5 0-.7l-1.7-2.6h5.6v4.3c0 .3.3.6.6.6h1.8v1.2zm-1.2-2.4v-6.1h7.3v6.1zm-14.5 20.6h8.6v8.6h-8.6zm27.9 8.5h-8.6v-18.3h8.6z" fill="#fff" transform="translate(25 25)"/></svg>