<svg height="765" viewBox="0 0 1680 765" width="1680" xmlns="http://www.w3.org/2000/svg" xmlns:xlink="http://www.w3.org/1999/xlink"><mask id="a" fill="#fff"><path d="m0 0h1680v765h-1680z" fill="#fff" fill-rule="evenodd"/></mask><g fill="none" fill-rule="evenodd" mask="url(#a)" opacity=".06717"><g transform="translate(-206)"><g fill="none" opacity=".8" stroke="#fff"><path d="m271 1-151 250"/><path d="m271 0-146 385"/><path d="m270 0 436 643"/><path d="m0 312 388.710121-131 186.289879 30.324074"/><path d="m200 358 276-56"/><path d="m126 622 452-411"/><path d="m512 551 100-190"/><path d="m700.472953 297 91.527047-130-217 43.026005"/><path d="m350.696244 590.72435 228.116494 100.748974 128.187262-48.548221-5.051715-345.925103-268.530212 45.04788-20.680457 399.95212-285.737616-365.861833"/><path d="m705.249572 642.803522 104.250714-57.803522 124.499714 68.04912-428.392918 83.646895-157.404341-146.343837-245.202741 159.647822"/><path d="m112.998547 765 125.001453-243-218 .304702"/><path d="m99 610 72.718447 38 141.281553-32.015748"/><path d="m792.626609 167 56.373391 159-148-29.53513"/><path d="m506 737 71.250377-44.912215 357.51856-38.365688-138.859069-179.03988 14.250076 111.290946-43.858566 85.866064-60.483653-28.317531 90.092143-168.839479 12.666734-23.750188 39.741877-124.079508 579.344731-77.797091 210.58445 55.112616 441.75234-174.168046-137.75073 602.128167"/><path d="m758 422 236 131.767109-74.693603 18.232891"/><path d="m839.564011 738 93.435989-84.76087-16.07162-81.260869-159.92838-148.978261 37.815577 51.282609"/><path d="m776 687.738357 160.258065-33.104149 55.741935-95.634208-46.240469 181"/><path d="m810 451 106.943915 7.653602 77.360318 96.282309 109.949737 13.164195 4.74603 171.899894-114.695767-185.064089"/><path d="m1105.20893 568.6271-187.062381-108.891378-67.146549-131.735722 428 408-151.04024-243.673012-276.95976-164.326988"/><path d="m1127.88561 492 59.12797-47.710843-337.01358-117.289157 467 12.845227"/><path d="m1227.394 275.85446-42.394 168.14554 241.5985-195 10.4015 178.826291-252 12.969484"/><path d="m1615 555 35.44304 118.934122 214.55696 62.065878"/><path d="m1500 732 150-60"/><path d="m1386 738-128.4316-350-148.5684 349.84776"/><path d="m1256.69019 388.582035 21.08174 345.961551 161.04546-307.014252 63.72075 305.645011 113.01714-178.305601 112.38311-19.777925 138.06161 199.909181-638-459"/><path d="m1186 444 92 291"/><path d="m1206 508 59.10214 30.532213 72.89786 78.467787"/><path d="m1639 305.288396-164.97744 9.927474-36.50226 113.78413 114.28872-20.924061 87.19098-102.787543-164.97744 9.927474-47.02256-65.21587"/><path d="m1438 428 201-125"/><path d="m1814.70768 265.073208 265.29232-135.073208-341 220.904151 126.65264 385.095849"/><path d="m1637.92508 302.411024 176.07492-39.411024-76.27795 86.001575-99.79697-46.590551-1.11239 67.51811-85.81269 35.286614 87.56073 44.146457 99.16132-100.36063-123.47492 204.998425 24.3136-104.637795-1.74804-79.433071 100.90936-20.927559-10.80604 185.140157"/><path d="m1811 303.028933 240-48.028933-125.45095 83z"/><path d="m2092 748-113.14068-171.921225-149.74965 48.510159 96.09857-284.95905-151.64322 115.93623 37.24016-151.479837 3.94494-39.357299-63.75012-4.728978"/><path d="m1773 454 78.87825-31.136842 72.12175-84.863158"/><path d="m1852.62794 424.02974-23.62794 199.97026 221-369"/><path d="m270 0 432 296"/><path d="m389.769585 180-188.769585 177.212627 148.364055 234.65396 262.635945-231.904109-34.565668 333.037522-67.079493-142.533949-160.990784 41.400536"/></g><g fill="#fff"><path d="m348.364055 590.866587 262.635945-230.866587-100 190z" fill-opacity=".15431"/><circle cx="851" cy="323" r="6" transform="matrix(-1 0 0 -1 1702 646)"/><circle cx="349" cy="587" r="6" transform="matrix(-1 0 0 -1 698 1174)"/><circle cx="372" cy="167" r="4" transform="matrix(-1 0 0 -1 744 334)"/><circle cx="902" cy="340" r="3" transform="matrix(-1 0 0 -1 1804 680)"/><circle cx="994" cy="549" r="3" transform="matrix(-1 0 0 -1 1988 1098)"/><circle cx="758" cy="418" r="3" transform="matrix(-1 0 0 -1 1516 836)"/><circle cx="372" cy="472" r="4" transform="matrix(-1 0 0 -1 744 944)"/><circle cx="706" cy="637" r="4" transform="matrix(-1 0 0 -1 1412 1274)"/><circle cx="1738" cy="347" r="6" transform="matrix(-1 0 0 -1 3476 694)"/><circle cx="1437" cy="424" r="6" transform="matrix(-1 0 0 -1 2874 848)"/><circle cx="1443" cy="378" r="4" transform="matrix(-1 0 0 -1 2886 756)"/><circle cx="1163" cy="374" r="4" transform="matrix(-1 0 0 -1 2326 748)"/><circle cx="1488" cy="441" r="3" transform="matrix(-1 0 0 -1 2976 882)"/><circle cx="1615" cy="550" r="3" transform="matrix(-1 0 0 -1 3230 1100)"/><circle cx="1334" cy="434" r="4" transform="matrix(-1 0 0 -1 2668 868)"/><path d="m994 548.767109-76.109567 18.232891 16.878504 81.722097z" fill-opacity=".312742"/><path d="m1554.34954 400.544869-111.34954 22.455131 192.53059-122.504726z" fill-opacity=".310007"/><circle cx="1829" cy="618" r="3" transform="matrix(-1 0 0 -1 3658 1236)"/><path d="m1814 655-86.06161-124.909181-109.93839 19.909181 143.95165 105z" fill-opacity=".134221"/></g></g></g></svg>