<svg enable-background="new 0 0 250 250" viewBox="0 0 250 250" xmlns="http://www.w3.org/2000/svg"><path d="m125 .3c68.9 0 124.7 55.8 124.7 124.7s-55.8 124.7-124.7 124.7-124.7-55.8-124.7-124.7 55.8-124.7 124.7-124.7z" fill="#fff"/><g fill="#fbd9c6"><path d="m249.6 119.1-5.3-1.2 5.1-1.9c0-.3-.1-.7-.1-1l-6.3 2.4-4.7-21.4 8.2.8c-.1-.3-.2-.7-.3-1l-8.2-.8-8-37.3c-.5-.8-1-1.6-1.5-2.3l-164.9 20.7 139.4-40.8h.1l4.3-3.9c-.3-.2-.5-.4-.8-.7l-4 3.7-138.7 40.5 117-61.4c-.4-.2-.7-.4-1.1-.5l-118.3 62.1 36.9-40.8 79-22.5c-.5-.2-.9-.4-1.4-.6l-75.3 21.4 38.3-26.8 2.7-.7 20 .7c-1.3-.4-2.6-.8-4-1.1l-16.5-.6 2.6-2.4c-.4-.1-.9-.1-1.3-.2l-2.8 2.6-.1.1-12.8-3.9c-.5 0-1.1 0-1.6 0-.6 0-1.2 0-1.8 0l15.1 4.6-93.5 25-.1-.2c-.7.6-1.5 1.3-2.2 1.9l1.7-.5 13.6 46.1-48.6 1c-.1.3-.3.7-.4 1l48.7-1-33.8 51.6-21.4-28.4c-.1.4-.2.9-.3 1.3l20.4 27-22.3-6.1v1l24.9 6.8-.7-.9 34.7-52.9 183.1 40.8v.1l.2-.1 7 1.6c.1-.2.1-.6.1-.9zm-113.5-112.6-38.6 27-49.7-3.5zm-77.1 70.1h-.2l-13.7-45.7 51.7 3.6zm169.7-20.2.1.5v.1l8.2 37.8-173.4-17.7zm-161.7 22 170.3 17.5 4.7 21.5z"/><path d="m139.2 2.9-.4-1.8c-.7-.1-1.3-.1-2-.2l1.5 2.4z"/><path d="m203.1 35.6 24.7 18.8c-.6-.9-1.3-1.8-1.9-2.7l-22.1-16.8z"/><g clip-rule="evenodd" fill-rule="evenodd"><circle cx="177" cy="70" r="3"/><circle cx="180" cy="46" r="2"/><circle cx="105" cy="59" r="2"/><circle cx="203.5" cy="78.5" r="1.5"/><circle cx="124" cy="75" r="2"/></g></g><path d="m125 .3c68.9 0 124.7 55.8 124.7 124.7s-55.8 124.7-124.7 124.7-124.7-55.8-124.7-124.7 55.8-124.7 124.7-124.7z" fill="none" stroke="#e75228" stroke-width=".67"/><circle clip-rule="evenodd" cx="125" cy="100" fill="#e75228" fill-rule="evenodd" r="40"/><g enable-background="new"><path d="m114.6 200.2c-1.7 0-2.8-1.4-2.8-3 0-1.8 1.1-3.3 2.9-3.3 1.7 0 2.8 1.4 2.8 3 .1 1.9-1.1 3.3-2.9 3.3zm.2-5.5c-1.3 0-2.1 1.1-2.1 2.4 0 1.4.8 2.4 2 2.4 1.3 0 2.1-1.1 2.1-2.4-.1-1.4-.8-2.4-2-2.4z"/><path d="m123.7 198.4c-.6.4-1.2.6-1.9.6-1.3 0-2.3-1-2.3-2.4 0-1.5 1.1-2.7 2.6-2.7 1.6 0 2.6 1.2 2.6 3 0 2.5-1.4 4.3-4.3 5.1l-.3-.7c1.9-.4 3.2-1.4 3.6-2.9zm.2-.7c0-.2 0-.4 0-.7 0-1.4-.6-2.3-1.8-2.3-1 0-1.7.9-1.7 1.9s.7 1.7 1.7 1.7c.6 0 1.2-.2 1.8-.6z"/><path d="m129.5 192.9-2.3 8.3c-.2.5-.3 1.1-.5 1.7l-.8.1c.3-.9.4-1.5.8-2.8l1.8-6.5c.3-1.1.5-1.8.7-2.5h.8c-.1.2-.4 1.2-.5 1.7z"/><path d="m132.5 200c0-.4 0-1.5 0-2.1v-3l-1.3.3-.1-.7c.6-.1 1.2-.3 1.5-.4l.6-.2.1.1v1.4 3.3 1.2z"/><path d="m137.2 200c0-.4 0-1.5 0-2.1v-3l-1.3.3-.1-.7c.6-.1 1.2-.3 1.5-.4l.6-.2.1.1v1.4 3.3 1.2z"/></g><g enable-background="new"><path d="m56.8 163.6.8-3.6-1-.3.1-.4h4.2l-.1.4-1.1.3-.9 4.1c-.3 1.3.2 2 1.4 2s1.8-1 2-2l.9-4.1-.8-.4.1-.4h2.9l-.1.4-1.1.4-1 4.5c-.3 1.4-1.4 2.5-3.4 2.5-2.5.2-3.4-1.1-2.9-3.4z"/><path d="m64.1 166.6 1.1-.3 1.3-6.2-1-.3.1-.4h4c1.9 0 2.8.6 2.8 1.8 0 1-.6 1.9-2.7 2.1v.2c1 .3 1.3.6 1.5 1.5.1.6.2 1 .3 1.2.2.2.4.4.7.5l-.1.4h-1.6c-.9 0-1.1-.3-1.3-1.3l-.2-1.1c-.1-.7-.4-.9-1.1-.9h-.1l-.6 2.6 1 .3-.1.4h-4.1zm4.4-3.6c1.3-.1 1.8-1.1 1.8-1.9 0-.7-.3-1.1-1.4-1.1h-.3l-.6 3z"/><path d="m72.4 166.6 1.1-.3 1.3-6.2-1-.3.1-.4h3.7c1.9 0 2.8.6 2.8 1.6 0 1.1-.9 1.8-2.5 1.9v.2c1.3.2 2 .8 2 1.7 0 1.1-.8 2.2-3.5 2.2h-4.1zm5.4-2.1c0-.8-.4-1.2-1.3-1.2h-.3l-.7 3c.2.1.4.1.7.1 1.2 0 1.6-1.1 1.6-1.9zm-1.1-1.8c1.3-.1 1.7-.9 1.7-1.7 0-.7-.4-1-1.2-1h-.3l-.6 2.8z"/><path d="m80 166.6 1-.4 3.9-6.9h1.6l1.1 7 .9.3-.1.4h-3.9l.1-.4 1-.3-.2-1.7h-2.4l-.9 1.6.8.4-.1.4h-2.8zm5.2-2.7-.4-2.9h-.1l-1.5 2.9z"/><path d="m94.3 165.7-2.1-4.5h-.2l-1 4.9.9.4-.1.4h-3.1l.1-.4 1.1-.4 1.3-5.9-.9-.4.1-.4h3.2l.6 1.3 1.6 3.6h.1l.9-4-.9-.4.1-.4h3l-.1.4-1.1.4-1.5 6.8h-1.5z"/><path d="m100.5 166.6 1.1-.3 1.3-6.2-1-.3.1-.4h3.1c2.9 0 4.2 1 4.2 3 0 2.5-1.6 4.6-5.5 4.6h-3.4zm3.8-.3c2-.1 2.9-2.6 2.9-4.2 0-1.2-.5-2-1.7-2.1h-.4l-1.4 6.4z"/><path d="m109.4 166.6 1.1-.3 1.3-6.2-1-.3.1-.4h6.8l-.5 2.6-.4.1-.5-1.1c-.3-.7-.5-.8-1.3-.9h-1.1l-.6 2.9h.3c.7 0 .9-.1 1.3-.9l.2-.4h.4l-.7 3.2h-.4l-.1-.4c-.1-.8-.2-.9-.9-.9h-.3l-.6 2.8 1.3-.1c.7 0 1.1-.3 1.7-.8l1.1-1h.3l-.6 2.5h-7.1z"/><path d="m119 160.1-.9-.3.1-.4h4.3l-.1.4-1.2.3.8 4.9 2.6-4.8-.9-.5.1-.4h3l-.1.4-1 .5-4 6.8h-1.3z"/><path d="m125.4 166.6 1.1-.3 1.3-6.2-1-.3.1-.4h6.8l-.5 2.6-.4.1-.5-1.1c-.3-.7-.5-.8-1.3-.9h-1.1l-.6 2.9h.3c.7 0 .9-.1 1.3-.9l.2-.4h.4l-.7 3.2h-.4l-.1-.4c-.1-.8-.2-.9-.9-.9h-.3l-.6 2.8 1.3-.1c.7 0 1.1-.3 1.7-.8l1.1-1h.3l-.6 2.5h-7.1z"/><path d="m133.2 166.6 1.1-.3 1.3-6.2-1-.3.1-.4h4.2l-.1.4-1.1.3-1.3 6.2h.9c.7 0 1.2-.3 1.8-1l1.1-1.2h.3l-.8 2.8h-6.6z"/><path d="m141.3 163.9c0-2.3 1.8-4.8 4.5-4.8 2.4 0 3.4 1.4 3.4 3.2 0 2.3-1.8 4.8-4.5 4.8-2.4.1-3.4-1.3-3.4-3.2zm5.7-2.3c0-1.2-.5-1.7-1.2-1.7-1.6 0-2.3 3.2-2.3 4.9 0 1.2.5 1.7 1.2 1.7 1.6 0 2.3-3.2 2.3-4.9z"/><path d="m149.2 166.6 1.1-.3 1.3-6.2-1-.3.1-.4h3.6c2.1 0 3 .7 3 2 0 1.4-1.1 2.6-3.4 2.6-.4 0-.7 0-1-.1l-.5 2.4 1.1.3-.1.4h-4.4zm6-5.4c0-.8-.3-1.1-1.2-1.2h-.3l-.7 3.2h.3c1.4 0 1.9-1.1 1.9-2z"/><path d="m156.9 166.6 1.2-.4 1.3-6.1-1-.3.1-.4h3.7l.1 1.2.4 4h.2l2.2-4.1.6-1.2h3.8l-.1.4-1.1.3-1.3 6.2 1 .3-.1.4h-4l.1-.4 1-.3 1.2-5.6h-.2l-3.4 6.3h-1.3l-.9-6.3h-.2l-1.2 5.5.9.4-.1.4h-3.1z"/><path d="m168.5 166.6 1.1-.3 1.3-6.2-1-.3.1-.4h6.8l-.5 2.6-.4.1-.5-1.1c-.3-.7-.5-.8-1.3-.9h-1.1l-.6 2.9h.3c.7 0 .9-.1 1.3-.9l.2-.4h.4l-.7 3.2h-.4l-.1-.4c-.1-.8-.2-.9-.9-.9h-.3l-.6 2.8 1.3-.1c.7 0 1.1-.3 1.7-.8l1.1-1h.3l-.6 2.5h-7.1z"/><path d="m181.8 165.7-2.1-4.5h-.1l-1 4.9.9.4-.1.4h-3.1l.1-.4 1.1-.4 1.3-5.9-.9-.4.1-.4h3.2l.6 1.3 1.6 3.6h.1l.9-4-.9-.4.1-.4h3.1l-.1.4-1.1.4-1.5 6.8h-1.5z"/><path d="m187.3 166.6 1.2-.3 1.3-6.3h-.3c-.4 0-.6.1-1.5 1.1l-1.2 1.2-.4-.1.8-2.9h7.2l-.2 2.9-.4.1-.7-1.2c-.5-.9-.7-1.1-1.1-1.1h-.2l-1.3 6.3 1.1.3-.1.4h-4.4z"/></g><g fill="#fff"><path d="m135.7 92h1.3v-2c0-.2-.1-.4-.3-.6l-3.3-2.1-.7 1.1 3 1.9z"/><path d="m142.3 114.7c-.5 0-.9.1-1.3.4 0-.5-.2-1-.4-1.4 1.1-.5 2.2-1.7 2.9-3.3.9-1.9 1.5-4.4 1.5-7 0-6-2.6-10.7-6-10.7s-6 4.7-6 10.7c0 3.7 1.1 7.1 2.8 9-.1.1-.1.2-.1.3v6h-8v-33.5l3.6 2.3.7-1.1-1.7-1.1v-4.7c0-.4-.3-.7-.7-.7h-17.3c-.4 0-.7.3-.7.7v10.7h1.3v-10h16v3.2l-1.6-1.1c-.2-.1-.5-.1-.7 0s-.3.3-.3.6v20.7l-6.3-4.6c-.3-.2-.6-.2-.8 0l-2.3 2c-.3-5.4-2.8-9.5-6-9.5-1.8 0-3.5 1.4-4.6 3.8l1.2.6c.9-1.9 2.1-3 3.4-3 2.5 0 4.7 4.3 4.7 9.3l-2.4 2.2c-.1.1-.2.3-.2.5v6h-.8c-.2 0-.3 0-.5 0v-7.1l2.5-2.5-.9-.9-2.3 2.3-2.2-1.7-.8 1.1 2.4 1.8v7.6c-1-.3-1.9-1.3-2.7-2.8-.9-1.8-1.3-4-1.3-6.4 0-1.8.3-3.6.8-5.1l-1.3-.4c-.6 1.7-.9 3.6-.9 5.5 0 2.6.5 5.1 1.5 7 .8 1.6 1.8 2.7 2.9 3.3-.2.4-.4.9-.4 1.4-.8-.5-1.8-.5-2.7 0-.8.5-1.3 1.4-1.3 2.3v2c0 .4.3.7.7.7h38.7c.4 0 .7-.3.7-.7v-2c-.1-1.5-1.3-2.7-2.8-2.7zm-16 4h-2v-10.7c0-.2-.1-.4-.3-.6l-3.7-2.5v-3l6 4.4zm-20-1.4c0-.7.6-1.3 1.3-1.3s1.3.6 1.3 1.3v1.3h-2.7zm4-2.1c0-1 .8-1.8 1.8-1.8h.8v5.3h-2.7zm4-8.9 4.7-4.1v16.5h-4.7zm6 12.4v-12.1l2.7 1.8v10.3zm18.7-24.7c2.5 0 4.7 4.3 4.7 9.3 0 2.4-.5 4.7-1.3 6.4-.7 1.5-1.7 2.5-2.7 2.8v-7.5l2.4-1.8-.8-1.1-2.2 1.7-2.3-2.3-.9.9 2.5 2.5v7.1c-.2 0-.3 0-.5 0h-.5c-1.8-1.4-3-4.9-3-8.7-.1-5 2.1-9.3 4.6-9.3zm-2 19.3h.8c1 0 1.8.8 1.8 1.8v3.5h-2.6zm6.7 5.4h-2.7v-1.3c0-.7.6-1.3 1.3-1.3s1.3.6 1.3 1.3z"/></g></svg>