<svg enable-background="new 0 0 250 250" viewBox="0 0 250 250" xmlns="http://www.w3.org/2000/svg"><path d="m125 .3c68.9 0 124.7 55.8 124.7 124.7s-55.8 124.7-124.7 124.7-124.7-55.8-124.7-124.7 55.8-124.7 124.7-124.7z" fill="#fff"/><path d="m249.6 119.1-5.3-1.2 5.1-1.9c0-.3-.1-.7-.1-1l-6.3 2.4-4.7-21.4 8.2.8c-.1-.3-.2-.7-.3-1l-8.2-.8-8-37.3c-.5-.8-1-1.6-1.5-2.3l-164.9 20.7 139.4-40.8h.1l4.3-3.9c-.3-.2-.5-.4-.8-.7l-4 3.7-138.7 40.5 117-61.4c-.4-.2-.7-.4-1.1-.5l-118.3 62.1 36.9-40.8 79-22.5c-.5-.2-.9-.4-1.4-.6l-75.3 21.4 38.3-26.8 2.7-.7 20 .7c-1.3-.4-2.6-.8-4-1.1l-16.5-.6 2.6-2.4c-.4-.1-.9-.1-1.3-.2l-2.8 2.6-.1.1-12.8-3.9c-.5 0-1.1 0-1.6 0-.6 0-1.2 0-1.8 0l15.1 4.6-93.5 25-.1-.2c-.7.6-1.5 1.3-2.2 1.9l1.7-.5 13.6 46.1-48.6 1c-.1.3-.3.7-.4 1l48.7-1-33.8 51.6-21.4-28.4c-.1.4-.2.9-.3 1.3l20.4 27-22.3-6.1v1l24.9 6.8-.7-.9 34.7-52.9 183.1 40.8v.1l.2-.1 7 1.6c.1-.2.1-.6.1-.9zm-113.5-112.6-38.6 27-49.7-3.5zm-77.1 70.1h-.2l-13.7-45.7 51.7 3.6zm169.7-20.2.1.5v.1l8.2 37.8-173.4-17.7zm-161.7 22 170.3 17.5 4.7 21.5z" fill="#fde1ca"/><g clip-rule="evenodd" fill="#fde1ca" fill-rule="evenodd" transform="matrix(-1 0 0 -1 205 80)"><circle cx="28" cy="10" r="3"/><circle cx="25" cy="34" r="2"/><circle cx="100" cy="21" r="2"/><circle cx="1.5" cy="1.5" r="1.5"/><circle cx="81" cy="5" r="2"/></g><circle clip-rule="evenodd" cx="125" cy="100" fill="#f37e26" fill-rule="evenodd" r="40"/><g enable-background="new"><path d="m114.3 200.2c-1.7 0-2.8-1.4-2.8-3 0-1.8 1.1-3.3 2.9-3.3 1.7 0 2.8 1.4 2.8 3 .1 1.9-1.1 3.3-2.9 3.3zm.2-5.5c-1.3 0-2.1 1.1-2.1 2.4 0 1.4.8 2.4 2 2.4 1.3 0 2.1-1.1 2.1-2.4-.1-1.4-.8-2.4-2-2.4z"/><path d="m122.9 200c-.7 0-1.4 0-2.2 0s-1.6 0-2.3 0l-.1-.6c2.8-2.1 3.5-2.8 3.5-3.6 0-.7-.5-1.1-1.3-1.1-.5 0-1.1.2-1.7.7l-.3-.7c.6-.4 1.3-.7 2-.7 1.1 0 2.1.7 2.1 1.8 0 .8-.4 1.4-1.2 2.1-.5.5-1.3 1.1-1.8 1.5h3.3z"/><path d="m126.9 192.9-2.3 8.3c-.2.5-.3 1.1-.5 1.7l-.8.1c.3-.9.4-1.5.8-2.8l1.8-6.5c.3-1.1.5-1.8.7-2.5h.8c-.1.2-.4 1.2-.5 1.7z"/><path d="m129.2 200c0-.4 0-1.5 0-2.1v-3l-1.3.3-.1-.7c.6-.1 1.2-.3 1.5-.4l.6-.2.1.1v1.4 3.3 1.2h-.8z"/><path d="m133.1 200c0-.4 0-1.5 0-2.1v-3l-1.3.3-.1-.7c.6-.1 1.2-.3 1.5-.4l.6-.2.1.1v1.4 3.3 1.2h-.8z"/></g><g fill="#fff" transform="translate(101 80)"><path d="m46.8 9.1-19.7-8.5c-1.7-.7-3.7-.7-5.5 0l-19.7 8.5c-1.2.5-1.9 1.6-1.9 2.8 0 1.3.7 2.3 1.9 2.8l2.3 1v.1 11.1c-.9.3-1.6 1.2-1.6 2.2 0 .6.2 1.1.6 1.5-.4.4-.7.9-.7 1.5l-.6 6.2c0 .4.1.8.4 1.2s.7.5 1.1.5h3c.4 0 .8-.2 1.1-.5s.4-.7.4-1.2l-.6-6.2c0-.5-.3-1.1-.7-1.5.4-.4.6-.9.6-1.5 0-1-.7-1.9-1.6-2.2v-10.5l4 1.7v.1 5.6c0 2.3 1.6 4.5 4.5 6.1 2.7 1.5 6.4 2.3 10.2 2.3s7.5-.8 10.2-2.3c2.9-1.6 4.5-3.7 4.5-6.1v-5.6s0 0 0-.1l7.8-3.4c1.1-.5 1.9-1.6 1.9-2.8s-.7-2.3-1.9-2.8zm-40.4 29.4h-3l.6-6.2c0-.5.5-.9 1-.9s.9.4 1 .9zm-1.5-8.6c-.5 0-.8-.4-.8-.8 0-.5.4-.8.8-.8.5 0 .8.4.8.8 0 .5-.3.8-.8.8zm32.7-9.3c0 1.9-1.6 3.7-4.3 5.1-.4.2-.5.6-.3 1 .1.3.4.4.7.4.1 0 .2 0 .3-.1 1.5-.7 2.7-1.6 3.6-2.6-.3 1.5-1.5 3-3.7 4.2-2.5 1.4-5.9 2.2-9.5 2.2s-7-.8-9.5-2.2c-2.1-1.2-3.4-2.6-3.7-4.2.7.9 1.7 1.6 3 2.3 2.7 1.5 6.4 2.3 10.2 2.3 1.1 0 2.2-.1 3.2-.2.4 0 .7-.4.6-.8s-.4-.7-.8-.6c-1 .1-2 .2-3 .2-3.6 0-7-.8-9.5-2.2-2.4-1.3-3.7-3-3.7-4.8v-1.9l10.5 4.5c.9.4 1.8.6 2.7.6s1.9-.2 2.7-.6l10.5-4.5zm8.6-7.2-19.7 8.5c-1.4.6-2.9.6-4.3 0l-15.1-6.5 13.8-2.4c.6.7 1.9 1.2 3.4 1.2 2.2 0 3.8-1 3.8-2.3s-1.6-2.3-3.8-2.3c-2 0-3.5.8-3.8 1.9l-15.7 2.8h-.1l-2.2-1c-.6-.3-1-.8-1-1.5s.4-1.2 1-1.5l19.7-8.5c.7-.3 1.4-.4 2.2-.4.7 0 1.5.1 2.2.4l19.7 8.5c.6.3 1 .8 1 1.5-.1.8-.5 1.3-1.1 1.6zm-24.2-1.5c0-.2.8-.8 2.4-.8s2.4.6 2.4.8-.8.8-2.4.8-2.4-.6-2.4-.8z"/><path d="m29.8 28.5h.2c.5-.1 1.1-.3 1.6-.4.4-.1.6-.5.5-.9s-.5-.6-.9-.5c-.5.2-1 .3-1.5.4-.4.1-.6.5-.5.9-.1.2.2.5.6.5z"/></g><g enable-background="new"><path d="m88.3 166.6 1.1-.3 1.3-6.2-1-.3.1-.4h6.8l-.5 2.6-.4.1-.5-1.1c-.3-.7-.5-.8-1.3-.9h-1.1l-.6 2.9h.3c.7 0 .9-.1 1.3-.9l.2-.4h.4l-.7 3.2h-.4l-.1-.4c-.1-.8-.2-.9-.9-.9h-.3l-.6 2.8 1.3-.1c.7 0 1.1-.3 1.7-.8l1.1-1h.3l-.6 2.5h-7.1z"/><path d="m96.1 166.6 1.1-.3 1.3-6.2-1-.3.1-.4h3.1c2.9 0 4.2 1 4.2 3 0 2.5-1.6 4.6-5.5 4.6h-3.4zm3.8-.3c2-.1 2.9-2.6 2.9-4.2 0-1.2-.5-2-1.7-2.1h-.4l-1.4 6.4z"/><path d="m106.4 163.6.8-3.6-1-.3.1-.4h4.2l-.1.4-1.1.3-.9 4.1c-.3 1.3.2 2 1.4 2s1.8-1 2-2l.9-4.1-.8-.4.1-.4h2.9l-.1.4-1.1.4-1 4.5c-.3 1.4-1.4 2.5-3.4 2.5-2.5.2-3.4-1.1-2.9-3.4z"/><path d="m114.5 163.9c0-2.5 2-4.7 4.8-4.7.8 0 1.5.1 2 .4l.5-.4h.4l-.5 3.1h-.5c-.4-1.7-.9-2.4-1.9-2.4-1.7 0-2.5 2.5-2.5 4.1 0 1.9 1 2.4 1.8 2.4.2 0 .5 0 .7-.1l1.6-2 .4.2-.5 2.2c-.6.3-1.5.4-2.3.4-2.1.1-4-.8-4-3.2z"/><path d="m121.4 166.6 1-.4 3.9-6.9h1.6l1.1 7 .9.3-.1.4h-3.9l.1-.4 1-.3-.2-1.7h-2.4l-.9 1.6.8.4-.1.4h-2.8zm5.2-2.7-.4-2.9h-.1l-1.5 2.9z"/><path d="m131.2 166.6 1.2-.3 1.3-6.3h-.3c-.4 0-.6.1-1.5 1.1l-1.2 1.2-.4-.1.8-2.9h7.2l-.2 2.9-.4.1-.7-1.2c-.5-.9-.7-1.1-1.1-1.1h-.2l-1.3 6.3 1.1.3-.1.4h-4.4z"/><path d="m138 166.6 1.1-.3 1.3-6.2-1-.3.1-.4h4.2l-.1.4-1.1.3-1.3 6.2 1 .3-.1.4h-4.2z"/><path d="m143.8 163.9c0-2.3 1.8-4.8 4.5-4.8 2.4 0 3.4 1.4 3.4 3.2 0 2.3-1.8 4.8-4.5 4.8-2.4.1-3.4-1.3-3.4-3.2zm5.7-2.3c0-1.2-.5-1.7-1.2-1.7-1.6 0-2.3 3.2-2.3 4.9 0 1.2.5 1.7 1.2 1.7 1.6 0 2.3-3.2 2.3-4.9z"/><path d="m157.1 165.7-2.1-4.5h-.1l-1 4.9.9.4-.1.4h-3.1l.1-.4 1.1-.4 1.3-5.9-.9-.4.1-.4h3.2l.6 1.3 1.6 3.6h.1l.9-4-.9-.4.1-.4h3.1l-.1.4-1.1.4-1.5 6.8h-1.5z"/></g><path d="m125 .3c68.9 0 124.7 55.8 124.7 124.7s-55.8 124.7-124.7 124.7-124.7-55.8-124.7-124.7 55.8-124.7 124.7-124.7z" fill="none" stroke="#f37e26" stroke-width=".67"/></svg>