<svg enable-background="new 0 0 250 250" viewBox="0 0 250 250" xmlns="http://www.w3.org/2000/svg"><circle cx="125" cy="125" fill="#fff" r="124.7"/><g fill="#fde1ca"><path d="m249.6 119.1-5.3-1.2 5.1-1.9c0-.3-.1-.7-.1-1l-6.3 2.4-4.7-21.4 8.2.8c-.1-.3-.2-.7-.3-1l-8.2-.8-8-37.3c-.5-.8-1-1.6-1.5-2.3l-164.9 20.7 139.4-40.8h.1l4.3-3.9c-.3-.2-.5-.4-.8-.7l-4 3.7-138.7 40.5 117-61.4c-.4-.2-.7-.4-1.1-.5l-118.3 62.1 36.9-40.8 79-22.5c-.5-.2-.9-.4-1.4-.6l-75.3 21.4 38.3-26.8 2.7-.7 20 .7c-1.3-.4-2.6-.8-4-1.1l-16.5-.6 2.6-2.4c-.4-.1-.9-.1-1.3-.2l-2.8 2.6-.1.1-12.8-3.9c-.5 0-1.1 0-1.6 0-.6 0-1.2 0-1.8 0l15.1 4.6-93.5 25-.1-.2c-.7.6-1.5 1.3-2.2 1.9l1.7-.5 13.6 46.1-48.6 1c-.1.3-.3.7-.4 1l48.7-1-33.8 51.6-21.4-28.4c-.1.4-.2.9-.3 1.3l20.4 27-22.3-6.1v1l24.9 6.8-.7-.9 34.7-52.9 183.1 40.8v.1l.2-.1 7 1.6c.1-.2.1-.6.1-.9zm-113.5-112.6-38.6 27-49.7-3.5zm-77.1 70.1h-.2l-13.7-45.7 51.7 3.6zm169.7-20.2.1.5v.1l8.2 37.8-173.4-17.7zm-161.7 22 170.3 17.5 4.7 21.5z"/><path d="m203.1 35.6 24.7 18.8c-.6-.9-1.3-1.8-1.9-2.7l-22.1-16.8z"/><g clip-rule="evenodd" fill-rule="evenodd" transform="matrix(-1 0 0 -1 205 80)"><circle cx="28" cy="10" r="3"/><circle cx="25" cy="34" r="2"/><circle cx="100" cy="21" r="2"/><circle cx="1.5" cy="1.5" r="1.5"/><circle cx="81" cy="5" r="2"/></g></g><path d="m125 .3c68.9 0 124.7 55.8 124.7 124.7s-55.8 124.7-124.7 124.7-124.7-55.8-124.7-124.7 55.8-124.7 124.7-124.7z" fill="none" stroke="#f37e26" stroke-width=".67"/><circle clip-rule="evenodd" cx="125" cy="100" fill="#f37e26" fill-rule="evenodd" r="40"/><g enable-background="new"><path d="m114.8 200.2c-1.7 0-2.8-1.4-2.8-3 0-1.8 1.1-3.3 2.9-3.3 1.7 0 2.8 1.4 2.8 3 0 1.9-1.1 3.3-2.9 3.3zm.1-5.5c-1.3 0-2.1 1.1-2.1 2.4 0 1.4.8 2.4 2 2.4 1.3 0 2.1-1.1 2.1-2.4 0-1.4-.7-2.4-2-2.4z"/><path d="m121.4 196c-.8-.4-1.4-1-1.4-1.9 0-1.2 1-2.1 2.3-2.1s2.2.9 2.2 2c0 .9-.6 1.5-1.5 1.9 1 .5 1.6 1.2 1.6 2 0 1.3-1 2.3-2.5 2.3-1.4 0-2.5-.9-2.5-2.1 0-1.1.7-1.8 1.8-2.1zm.7.2c-1 .4-1.7.9-1.7 1.8s.8 1.4 1.7 1.4c1 0 1.6-.7 1.6-1.5.1-.7-.5-1.2-1.6-1.7zm.2-.6c.9-.3 1.4-.9 1.4-1.6 0-.8-.6-1.4-1.4-1.4-.9 0-1.5.6-1.5 1.4s.5 1.2 1.5 1.6z"/><path d="m129.3 192.9-2.3 8.3c-.2.5-.3 1.1-.5 1.7l-.8.1c.3-.9.4-1.5.8-2.8l1.8-6.5c.3-1.1.5-1.8.7-2.5h.8c-.1.2-.4 1.2-.5 1.7z"/><path d="m132.3 200c0-.4 0-1.5 0-2.1v-3l-1.3.3-.1-.7c.6-.1 1.2-.3 1.5-.4l.6-.2.1.1v1.4 3.3 1.2z"/><path d="m137 200c0-.4 0-1.5 0-2.1v-3l-1.3.3-.1-.7c.6-.1 1.2-.3 1.5-.4l.6-.2.1.1v1.4 3.3 1.2z"/></g><g enable-background="new"><path d="m89 166.6 1.2-.3 1.3-6.3h-.3c-.4 0-.6.1-1.5 1.1l-1.2 1.2-.4-.1.8-2.9h7.2l-.2 2.9-.4.1-.7-1.2c-.5-.9-.7-1.1-1.1-1.1h-.2l-1.3 6.3 1.1.3-.1.4h-4.4z"/><path d="m95.6 166.6 1.1-.3 1.3-6.2-1-.3.1-.4h4c1.9 0 2.8.6 2.8 1.8 0 1-.6 1.9-2.7 2.1v.2c1 .3 1.3.6 1.5 1.5.1.6.2 1 .3 1.2.2.2.4.4.7.5l-.1.4h-1.6c-.9 0-1.1-.3-1.3-1.3l-.2-1.1c-.1-.7-.4-.9-1.1-.9h-.1l-.6 2.6 1 .3-.1.4h-4.2zm4.4-3.6c1.3-.1 1.8-1.1 1.8-1.9 0-.7-.3-1.1-1.4-1.1h-.3l-.6 3z"/><path d="m103.5 166.6 1-.4 3.9-6.9h1.6l1.1 7 .9.3-.1.4h-3.9l.1-.4 1-.3-.2-1.7h-2.4l-.9 1.6.8.4-.1.4h-2.8zm5.2-2.7-.4-2.9h-.1l-1.5 2.9z"/><path d="m117.8 165.7-2.1-4.5h-.1l-1 4.9.9.4-.1.4h-3.1l.1-.4 1.1-.4 1.3-5.9-.9-.4.1-.4h3.2l.6 1.3 1.6 3.6h.1l.9-4-.9-.4.1-.4h3.1l-.1.4-1.1.4-1.5 6.8h-1.5z"/><path d="m122.2 164.3h.5c.4 1.6 1.1 2.2 2.1 2.2.8 0 1.2-.5 1.2-1.1 0-.7-.4-.9-1.4-1.5-.9-.5-1.7-1-1.7-2.3s1.2-2.4 2.8-2.4c.7 0 1.3.2 1.8.5l.5-.5h.5l-.3 2.5h-.5c-.4-1.3-.9-1.9-1.8-1.9-.6 0-1.1.4-1.1 1.1 0 .6.4.8 1.4 1.4.9.5 1.7.9 1.7 2.2 0 1.5-1.2 2.6-2.9 2.6-.9 0-1.7-.2-2.3-.5l-.4.5h-.5z"/><path d="m128.2 166.6 1.1-.3 1.3-6.2-1-.3.1-.4h3.6c2.1 0 3 .7 3 2 0 1.4-1.1 2.6-3.4 2.6-.4 0-.7 0-1-.1l-.5 2.4 1.1.3-.1.4h-4.4zm6.1-5.4c0-.8-.3-1.1-1.2-1.2h-.3l-.7 3.2h.3c1.3 0 1.9-1.1 1.9-2z"/><path d="m136.8 163.9c0-2.3 1.8-4.8 4.5-4.8 2.4 0 3.4 1.4 3.4 3.2 0 2.3-1.8 4.8-4.5 4.8-2.4.1-3.4-1.3-3.4-3.2zm5.7-2.3c0-1.2-.5-1.7-1.2-1.7-1.6 0-2.3 3.2-2.3 4.9 0 1.2.5 1.7 1.2 1.7 1.6 0 2.3-3.2 2.3-4.9z"/><path d="m144.7 166.6 1.1-.3 1.3-6.2-1-.3.1-.4h4c1.9 0 2.8.6 2.8 1.8 0 1-.6 1.9-2.7 2.1v.2c1 .3 1.3.6 1.5 1.5.1.6.2 1 .3 1.2.2.2.4.4.7.5l-.1.4h-1.6c-.9 0-1.1-.3-1.3-1.3l-.2-1.1c-.1-.7-.4-.9-1.1-.9h-.1l-.6 2.6 1 .3-.1.4h-4.2zm4.4-3.6c1.3-.1 1.8-1.1 1.8-1.9 0-.7-.3-1.1-1.4-1.1h-.3l-.6 3z"/><path d="m154.6 166.6 1.2-.3 1.3-6.3h-.3c-.4 0-.6.1-1.5 1.1l-1.2 1.2-.4-.1.8-2.9h7.2l-.2 2.9-.4.1-.7-1.2c-.5-.9-.7-1.1-1.1-1.1h-.2l-1.3 6.3 1.1.3-.1.4h-4.4z"/></g><g fill="#fff"><path d="m130.3 81.1h-3.5c-.3 0-.6-.3-.6-.6s.3-.6.6-.6h3.5c.3 0 .6.3.6.6s-.3.6-.6.6z"/><path d="m138.6 116.5h-26.6c-1.6 0-3-1.3-3-3v-30.5c0-1.7 1.3-3 3-3h5.5c.3 0 .6.3.6.6s-.3.6-.6.6h-5.5c-1 0-1.8.8-1.8 1.9v30.5c0 1 .8 1.9 1.8 1.9h26.6c1 0 1.8-.8 1.8-1.9v-30.6c0-1-.8-1.9-1.8-1.9h-5.5c-.3 0-.6-.3-.6-.6s.3-.6.6-.6h5.5c1.6 0 3 1.3 3 3v30.5c0 1.8-1.3 3.1-3 3.1z"/><path d="m123.9 81.1h-3.5c-.3 0-.6-.3-.6-.6s.3-.6.6-.6h3.5c.3 0 .6.3.6.6s-.3.6-.6.6z"/><path d="m136.8 120h-3.9c-.6 0-1.2-.5-1.2-1.2v-2.9c0-.3.3-.6.6-.6h5.1c.3 0 .6.3.6.6v2.9c0 .3-.1.6-.3.8-.3.3-.6.4-.9.4zm-3.9-3.5v2.3h3.9v-2.3z"/><path d="m117.7 120h-3.9c-.6 0-1.2-.5-1.2-1.2v-2.9c0-.3.3-.6.6-.6h5.1c.3 0 .6.3.6.6v2.9c0 .7-.5 1.2-1.2 1.2zm-3.9-3.5v2.3h3.9v-2.3z"/><path d="m141 106.1h-31.4c-.3 0-.6-.3-.6-.6v-18.2c0-.3.3-.6.6-.6h31.4c.3 0 .6.3.6.6v18.2c0 .2-.1.3-.2.4s-.2.2-.4.2zm-30.8-1.2h30.3v-17h-30.3z"/><path d="m134.4 113.5c-1.1 0-2.2-.7-2.6-1.8s-.2-2.3.6-3.1 2-1.1 3.1-.6 1.7 1.5 1.7 2.6c0 1.7-1.2 2.9-2.8 2.9zm0-4.5c-.7 0-1.3.4-1.6 1.1-.3.6-.1 1.4.4 1.9s1.2.6 1.8.4c.6-.3 1-.9 1-1.6.1-1.1-.6-1.8-1.6-1.8z"/><path d="m116.2 113.5c-1.1 0-2.2-.7-2.6-1.8s-.2-2.3.6-3.1 2-1.1 3.1-.6 1.7 1.5 1.7 2.6c.1 1.7-1.2 2.9-2.8 2.9zm0-4.5c-.7 0-1.3.4-1.6 1.1-.3.6-.1 1.4.4 1.9s1.2.6 1.8.4 1-.9 1-1.6c.1-1.1-.6-1.8-1.6-1.8z"/><path d="m130.9 84.4h-11.2c-.3 0-.6-.3-.6-.6s.3-.6.6-.6h11.2c.3 0 .6.3.6.6s-.3.6-.6.6z"/><path d="m143 97.1h-2c-.3 0-.6-.3-.6-.6s.3-.6.6-.6h1.9c.3 0 .6-.3.6-.6v-5.3c0-.3-.3-.6-.6-.6h-1.9c-.3 0-.6-.3-.6-.6s.3-.6.6-.6h1.9c.9 0 1.7.8 1.7 1.7v5.4c.1 1-.7 1.8-1.6 1.8z"/><path d="m125.3 106.1c-.3 0-.6-.3-.6-.6v-18.2c0-.3.3-.6.6-.6s.6.3.6.6v18.2c0 .3-.3.6-.6.6z"/><path d="m129.4 109.9h-8.2c-.3 0-.6-.3-.6-.6s.3-.6.6-.6h8.2c.3 0 .6.3.6.6s-.3.6-.6.6z"/><path d="m129.4 112.6h-8.2c-.3 0-.6-.3-.6-.6s.3-.6.6-.6h8.2c.3 0 .6.3.6.6s-.3.6-.6.6z"/><path d="m109.6 97.1h-1.9c-.9 0-1.7-.8-1.7-1.7v-5.4c0-.9.8-1.7 1.7-1.7h1.9c.3 0 .6.3.6.6s-.3.6-.6.6h-1.9c-.3 0-.6.3-.6.6v5.4c0 .3.3.6.6.6h1.9c.3 0 .6.3.6.6s-.3.4-.6.4z"/></g></svg>