<svg enable-background="new 0 0 250 250" viewBox="0 0 250 250" xmlns="http://www.w3.org/2000/svg"><path d="m125 .3c68.9 0 124.7 55.8 124.7 124.7s-55.8 124.7-124.7 124.7-124.7-55.8-124.7-124.7 55.8-124.7 124.7-124.7z" fill="#fff"/><g fill="#daeffa"><path d="m203.1 35.6 24.7 18.8c-.6-.9-1.3-1.8-1.9-2.7l-22.1-16.8z"/><path d="m139.2 2.9-.4-1.8c-.7-.1-1.3-.1-2-.2l1.5 2.4z"/><path d="m249.6 119.1-5.3-1.2 5.1-1.9c0-.3-.1-.7-.1-1l-6.3 2.4-4.7-21.4 8.2.8c-.1-.3-.2-.7-.3-1l-8.2-.8-8-37.3c-.5-.8-1-1.6-1.5-2.3l-164.9 20.7 139.4-40.8h.1l4.3-3.9c-.3-.2-.5-.4-.8-.7l-4 3.7-138.7 40.5 117-61.4c-.4-.2-.7-.4-1.1-.5l-118.3 62.1 36.9-40.8 79-22.5c-.5-.2-.9-.4-1.4-.6l-75.3 21.4 38.3-26.8 2.7-.7 20 .7c-1.3-.4-2.6-.8-4-1.1l-16.5-.6 2.6-2.4c-.4-.1-.9-.1-1.3-.2l-2.8 2.6-.1.1-12.8-3.9c-.5 0-1.1 0-1.6 0-.6 0-1.2 0-1.8 0l15.1 4.6-93.5 25-.1-.2c-.7.6-1.5 1.3-2.2 1.9l1.7-.5 13.6 46.1-48.6 1c-.1.3-.3.7-.4 1l48.7-1-33.8 51.6-21.4-28.4c-.1.4-.2.9-.3 1.3l20.4 27-22.3-6.1v1l24.9 6.8-.7-.9 34.7-52.9 183.1 40.8v.1l.2-.1 7 1.6c.1-.2.1-.6.1-.9zm-113.5-112.6-38.6 27-49.7-3.5zm-77.1 70.1h-.2l-13.7-45.7 51.7 3.6zm169.7-20.2.1.5v.1l8.2 37.8-173.4-17.7zm-161.7 22 170.3 17.5 4.7 21.5z"/></g><path d="m125 .3c68.9 0 124.7 55.8 124.7 124.7s-55.8 124.7-124.7 124.7-124.7-55.8-124.7-124.7 55.8-124.7 124.7-124.7z" fill="none" stroke="#009fd6" stroke-width=".67"/><g clip-rule="evenodd" fill="#daeffa" fill-rule="evenodd" transform="matrix(-1 0 0 -1 205 80)"><circle cx="28" cy="10" r="3"/><circle cx="25" cy="34" r="2"/><circle cx="100" cy="21" r="2"/><circle cx="1.5" cy="1.5" r="1.5"/><circle cx="81" cy="5" r="2"/></g><path d="m125 .3c68.9 0 124.7 55.8 124.7 124.7s-55.8 124.7-124.7 124.7-124.7-55.8-124.7-124.7 55.8-124.7 124.7-124.7z" fill="none" stroke="#009fd6" stroke-width=".67"/><circle clip-rule="evenodd" cx="125" cy="100" fill="#009fd6" fill-rule="evenodd" r="40"/><g enable-background="new"><path d="m115 200.2c-1.7 0-2.8-1.4-2.8-3 0-1.8 1.1-3.3 2.9-3.3 1.7 0 2.8 1.4 2.8 3 .1 1.9-1.1 3.3-2.9 3.3zm.2-5.5c-1.3 0-2.1 1.1-2.1 2.4 0 1.4.8 2.4 2 2.4 1.3 0 2.1-1.1 2.1-2.4-.1-1.4-.8-2.4-2-2.4z"/><path d="m119.8 201.1c.3.1.6.1.9.1 1.5 0 2.7-.6 2.7-1.8 0-.9-.7-1.4-1.8-1.4-.5 0-.9.1-1.3.1l-.2-.1c0-.3.1-.8.1-1.3v-1.3c0-.4 0-.8 0-1.2l.1-.1h2 1.9c-.1.2-.1.6-.1.8-.6 0-1 0-1.8 0h-1.3l-.1 2.4c.2 0 .5-.1.8-.1 1.7 0 2.6.8 2.6 2.1 0 1.6-1.5 2.6-3.4 2.6-.3 0-.7 0-.9-.1z"/><path d="m129 192.9-2.3 8.3c-.2.5-.3 1.1-.5 1.7l-.8.1c.3-.9.4-1.5.8-2.8l1.8-6.5c.3-1.1.5-1.8.7-2.5h.8c0 .2-.3 1.2-.5 1.7z"/><path d="m132.1 200c0-.4 0-1.5 0-2.1v-3l-1.3.3-.1-.7c.6-.1 1.2-.3 1.5-.4l.6-.2.1.1v1.4 3.3 1.2z"/><path d="m136.8 200c0-.4 0-1.5 0-2.1v-3l-1.3.3-.1-.7c.6-.1 1.2-.3 1.5-.4l.6-.2.1.1v1.4 3.3 1.2z"/></g><g enable-background="new"><path d="m97.3 166.6 1.1-.3 1.3-6.2-1-.3.1-.4h6.8l-.5 2.6-.4.1-.5-1.1c-.3-.6-.5-.8-1.3-.9h-1.1l-.6 3h.4c.6 0 .9-.2 1.2-.9l.2-.4h.4l-.7 3.2h-.4l-.1-.3c-.1-.7-.3-.9-.9-.9h-.3l-.5 2.6 1.1.3-.1.4h-4.3z"/><path d="m104.8 166.6 1.1-.3 1.3-6.2-1-.3.1-.4h4.2l-.1.4-1.1.3-1.3 6.2 1 .3-.1.4h-4.2z"/><path d="m115.2 165.7-2.1-4.5h-.1l-1 4.9.9.4-.1.4h-3.1l.1-.4 1.1-.4 1.3-5.9-.9-.4.1-.4h3.2l.6 1.3 1.6 3.6h.1l.9-4-.9-.4.1-.4h3.1l-.1.4-1.1.4-1.5 6.8h-1.5z"/><path d="m118.6 166.6 1-.4 3.9-6.9h1.6l1.1 7 .9.3-.1.4h-4l.1-.4 1-.3-.2-1.7h-2.4l-.9 1.6.8.4-.1.4h-2.8zm5.2-2.7-.4-2.9h-.1l-1.5 2.9z"/><path d="m132.8 165.7-2.1-4.5h-.1l-1 4.9.9.4-.1.4h-3.1l.1-.4 1.1-.4 1.3-5.9-.9-.4.1-.4h3.2l.6 1.3 1.6 3.6h.1l.9-4-.9-.4.1-.4h3.1l-.1.4-1.1.4-1.5 6.8h-1.5z"/><path d="m137.4 163.9c0-2.5 2-4.7 4.8-4.7.8 0 1.5.1 2 .4l.5-.4h.4l-.5 3.1h-.5c-.4-1.7-.9-2.4-1.9-2.4-1.7 0-2.5 2.5-2.5 4.1 0 1.9 1 2.4 1.8 2.4.2 0 .5 0 .7-.1l1.6-2 .4.2-.5 2.2c-.6.3-1.5.4-2.3.4-2.2.1-4-.8-4-3.2z"/><path d="m144.5 166.6 1.1-.3 1.3-6.2-1-.3.1-.4h6.8l-.5 2.6h-.3l-.5-1.1c-.3-.7-.5-.8-1.3-.9h-1.1l-.6 2.9h.3c.7 0 .9-.1 1.3-.9l.2-.4h.4l-.7 3.2h-.4l-.1-.4c-.1-.8-.2-.9-.9-.9h-.3l-.6 2.8 1.3-.1c.7 0 1.1-.3 1.7-.8l1.1-1h.3l-.6 2.5h-7.1z"/></g><g fill="#fff"><path d="m103.4 119.6h42.1v1.4h-42.1z"/><path d="m144 87-3-5.6c-.2-.3-.6-.5-1-.3l-6 2.8c-.4.2-.5.6-.3.9s.6.5 1 .3l4.4-2-1.2 3.2c-5.2 13.9-18.7 23.6-34.4 24.9l.1 1.4c16.3-1.3 30.3-11.4 35.7-25.8l1.2-3.2 2.2 4.1c.2.3.6.5 1 .3s.5-.7.3-1z"/><path d="m118.1 115.4h-4.9c-.4 0-.7.3-.7.7v4.2c0 .4.3.7.7.7h4.9c.4 0 .7-.3.7-.7v-4.2c0-.4-.3-.7-.7-.7zm-.7 4.2h-3.5v-2.8h3.5z"/><path d="m131.5 109.8h-4.9c-.4 0-.7.3-.7.7v9.8c0 .4.3.7.7.7h4.9c.4 0 .7-.3.7-.7v-9.8c0-.4-.3-.7-.7-.7zm-.7 9.8h-3.5v-8.4h3.5z"/><path d="m144.8 95h-4.9c-.4 0-.7.3-.7.7v24.6c0 .4.3.7.7.7h4.9c.4 0 .7-.3.7-.7v-24.6c0-.4-.3-.7-.7-.7zm-.7 24.6h-3.5v-23.2h3.5z"/><path d="m113.9 90.8h-2.8c-.4 0-.7-.3-.7-.7v-1.4c0-.8.6-1.4 1.4-1.4h1.4c.8 0 1.4.6 1.4 1.4h1.4c0-1.6-1.3-2.8-2.8-2.8v-1.4h-1.4v1.4c-1.6 0-2.8 1.3-2.8 2.8v1.4c0 1.2.9 2.1 2.1 2.1h2.8c.4 0 .7.3.7.7v1.4c0 .8-.6 1.4-1.4 1.4h-1.4c-.8 0-1.4-.6-1.4-1.4v-.7h-1.4v.7c0 1.6 1.3 2.8 2.8 2.8v1.4h1.4v-1.4c1.6 0 2.8-1.3 2.8-2.8v-1.4c0-1.1-.9-2.1-2.1-2.1z"/></g><circle cx="112.5" cy="91.5" fill="none" r="9.5" stroke="#fff" stroke-width="2"/></svg>