<svg enable-background="new 0 0 250 250" viewBox="0 0 250 250" xmlns="http://www.w3.org/2000/svg"><path d="m125 .3c68.9 0 124.7 55.8 124.7 124.7s-55.8 124.7-124.7 124.7-124.7-55.8-124.7-124.7 55.8-124.7 124.7-124.7z" fill="#fff"/><g fill="#ffeecf"><path d="m249.6 119.1-5.3-1.2 5.1-1.9c0-.3-.1-.7-.1-1l-6.3 2.4-4.7-21.4 8.2.8c-.1-.3-.2-.7-.3-1l-8.2-.8-8-37.3c-.5-.8-1-1.6-1.5-2.3l-164.9 20.7 139.4-40.8h.1l4.3-3.9c-.3-.2-.5-.4-.8-.7l-4 3.7-138.7 40.5 117-61.4c-.4-.2-.7-.4-1.1-.5l-118.3 62.1 36.9-40.8 79-22.5c-.5-.2-.9-.4-1.4-.6l-75.3 21.4 38.3-26.8 2.7-.7 20 .7c-1.3-.4-2.6-.8-4-1.1l-16.5-.6 2.6-2.4c-.4-.1-.9-.1-1.3-.2l-2.8 2.6-.1.1-12.8-3.9c-.5 0-1.1 0-1.6 0-.6 0-1.2 0-1.8 0l15.1 4.6-93.5 25-.1-.2c-.7.6-1.5 1.3-2.2 1.9l1.7-.5 13.6 46.1-48.6 1c-.1.3-.3.7-.4 1l48.7-1-33.8 51.6-21.4-28.4c-.1.4-.2.9-.3 1.3l20.4 27-22.3-6.1v1l24.9 6.8-.7-.9 34.7-52.9 183.1 40.8v.1l.2-.1 7 1.6c.1-.2.1-.6.1-.9zm-113.5-112.6-38.6 27-49.7-3.5zm-77.1 70.1h-.2l-13.7-45.7 51.7 3.6zm169.7-20.2.1.5v.1l8.2 37.8-173.4-17.7zm-161.7 22 170.3 17.5 4.7 21.5z"/><path d="m139.2 2.9-.4-1.8c-.7-.1-1.3-.1-2-.2l1.5 2.4z"/><path d="m203.1 35.6 24.7 18.8c-.6-.9-1.3-1.8-1.9-2.7l-22.1-16.8z"/><g clip-rule="evenodd" fill-rule="evenodd" transform="matrix(-1 0 0 -1 205 80)"><circle cx="28" cy="10" r="3"/><circle cx="25" cy="34" r="2"/><circle cx="100" cy="21" r="2"/><circle cx="1.5" cy="1.5" r="1.5"/><circle cx="81" cy="5" r="2"/></g></g><circle clip-rule="evenodd" cx="125" cy="100" fill="#fbb316" fill-rule="evenodd" r="40"/><g enable-background="new"><path d="m114.6 200.2c-1.7 0-2.8-1.4-2.8-3 0-1.8 1.1-3.3 2.9-3.3 1.7 0 2.8 1.4 2.8 3 .1 1.9-1.1 3.3-2.9 3.3zm.2-5.5c-1.3 0-2.1 1.1-2.1 2.4 0 1.4.8 2.4 2 2.4 1.3 0 2.1-1.1 2.1-2.4-.1-1.4-.8-2.4-2-2.4z"/><path d="m120.5 195.9c.5-.4 1.1-.8 1.9-.8 1.4 0 2.3 1.1 2.3 2.4 0 1.5-1.1 2.7-2.6 2.7-1.6 0-2.6-1.2-2.6-3 0-2.4 1.5-4.7 4.6-5.2l.2.7c-2.2.4-3.4 1.6-3.8 3.2zm-.1.7v.5c0 1.5.7 2.3 1.8 2.3s1.7-.9 1.7-1.9-.7-1.7-1.7-1.7c-.7 0-1.3.4-1.8.8z"/><path d="m129.5 192.9-2.3 8.3c-.2.5-.3 1.1-.5 1.7l-.8.1c.3-.9.4-1.5.8-2.8l1.8-6.5c.3-1.1.5-1.8.7-2.5h.8c-.1.2-.4 1.2-.5 1.7z"/><path d="m132.5 200c0-.4 0-1.5 0-2.1v-3l-1.3.3-.1-.7c.6-.1 1.2-.3 1.5-.4l.6-.2.1.1v1.4 3.3 1.2z"/><path d="m137.2 200c0-.4 0-1.5 0-2.1v-3l-1.3.3-.1-.7c.6-.1 1.2-.3 1.5-.4l.6-.2.1.1v1.4 3.3 1.2z"/></g><g enable-background="new"><path d="m99.5 166.6 1.1-.3 1.3-6.2-1-.3.1-.4h4.1l-.1.4-1 .3-.5 2.6h2.6l.5-2.6-.8-.3.1-.4h4.1l-.1.4-1.1.3-1.3 6.2 1 .3-.1.4h-4.1l.1-.4 1-.3.6-2.8h-2.6l-.6 2.9.8.3-.1.4h-4.1z"/><path d="m108.9 166.6 1.1-.3 1.3-6.2-1-.3.1-.4h6.8l-.5 2.6-.4.1-.5-1.1c-.3-.7-.5-.8-1.3-.9h-1.1l-.6 2.9h.3c.7 0 .9-.1 1.3-.9l.2-.4h.4l-.7 3.2h-.3l-.1-.4c-.1-.8-.2-.9-.9-.9h-.3l-.6 2.8 1.3-.1c.7 0 1.1-.3 1.7-.8l1.1-1h.3l-.6 2.5h-7.1z"/><path d="m116.5 166.6 1-.4 3.9-6.9h1.6l1.1 7 .9.3-.1.4h-3.9l.1-.4 1-.3-.2-1.7h-2.4l-.9 1.6.8.4-.1.4h-2.8zm5.2-2.7-.4-2.9h-.1l-1.5 2.9z"/><path d="m125.2 166.6 1.1-.3 1.3-6.2-1-.3.1-.4h4.2l-.1.4-1.1.3-1.3 6.2h.9c.7 0 1.2-.3 1.8-1l1.1-1.2h.3l-.8 2.8h-6.6z"/><path d="m133.6 166.6 1.2-.3 1.3-6.3h-.3c-.4 0-.6.1-1.5 1.1l-1.2 1.2-.4-.1.8-2.9h7.2l-.2 2.9-.4.1-.7-1.2c-.5-.9-.7-1.1-1.1-1.1h-.2l-1.3 6.3 1.1.3-.1.4h-4.4z"/><path d="m140.2 166.6 1.1-.3 1.3-6.2-1-.3.1-.4h4.1l-.1.4-1 .3-.5 2.6h2.6l.5-2.6-.8-.3.1-.4h4.1l-.1.4-1.1.3-1.3 6.2 1 .3-.2.4h-4l.1-.4 1-.3.6-2.8h-2.7l-.6 2.9.8.3-.1.4h-4.1z"/></g><path d="m151.1 104.2h-4.6c1.9-4.4 1.7-7.9 1-10.3-1.2-4.3-5.4-8.9-11.6-8.9-1.6 0-3.3.3-5 .9-2.9 1.1-4.8 2.3-5.7 2.9-.9-.6-2.8-1.8-5.7-2.9-1.7-.6-3.4-.9-5-.9-6.2 0-10.3 4.6-11.6 8.9-.7 2.5-1 6.4 1.4 11.2h-5.5c-.5 0-.8.4-.8.8 0 .5.4.8.8.8h6.5c.3.5.6.9.9 1.4 5.3 7.8 16.9 16.3 19 16.8v.1s.1 0 .1-.1h.2v-.1c1.8-.9 12.9-8.2 18.8-16.8.6-.8 1-1.6 1.4-2.3h5.4c.5 0 .8-.4.8-.8.1-.4-.4-.7-.8-.7zm-8.2 3c-5.4 8.1-15.5 14.5-17.6 15.9-2.3-1.3-12.2-7.9-17.7-15.9-.1-.2-.2-.3-.3-.5h7.5c.3 0 .6-.2.8-.5l3.4-6.9 5.4 14c.1.3.5.5.8.5h.1c.4 0 .7-.3.8-.6l4.7-16.4 2.5 8.3c.1.3.4.5.7.6s.6-.1.8-.4l2-3 1.7 2.9c.2.3.4.4.7.4h4.6c-.3.7-.6 1.2-.9 1.6zm1.8-3h-5l-2.1-3.6c-.2-.3-.4-.4-.7-.4s-.6.1-.7.4l-1.7 2.6-2.8-9.3c-.1-.4-.5-.6-.8-.6-.4 0-.7.3-.8.6l-4.8 16.7-5.3-13.5c-.1-.3-.4-.5-.7-.5-.4 0-.6.2-.8.5l-4.1 8.1h-8.1c-2.1-3.8-2.6-7.4-1.7-10.7 1.1-3.7 4.6-7.6 10-7.6 1.4 0 2.9.3 4.4.8 3.7 1.4 5.7 3 5.8 3 .3.3.7.3 1 0 0 0 2-1.6 5.8-3 1.5-.6 3-.8 4.4-.8 5.3 0 8.9 3.9 10 7.6.8 2.9.4 6.2-1.3 9.7z" fill="#fff"/><path d="m125 .3c68.9 0 124.7 55.8 124.7 124.7s-55.8 124.7-124.7 124.7-124.7-55.8-124.7-124.7 55.8-124.7 124.7-124.7z" fill="none" stroke="#fbb316" stroke-width=".67"/></svg>