<?xml version="1.0" encoding="utf-8"?>
<!-- Generator: Adobe Illustrator 26.0.1, SVG Export Plug-In . SVG Version: 6.00 Build 0)  -->
<svg version="1.1" id="Layer_1" xmlns="http://www.w3.org/2000/svg" xmlns:xlink="http://www.w3.org/1999/xlink" x="0px" y="0px"
	 viewBox="0 0 250 250" style="enable-background:new 0 0 250 250;" xml:space="preserve">
<style type="text/css">
	.st0{fill:#FFFFFF;}
	.st1{fill:#F2F7D6;}
	.st2{fill:#E5F1D4;}
	.st3{fill-rule:evenodd;clip-rule:evenodd;fill:#F2F7D6;}
	.st4{fill:none;stroke:#C8DA2D;stroke-width:0.67;}
	.st5{fill-rule:evenodd;clip-rule:evenodd;fill:#C8DA2D;}
	.st6{enable-background:new    ;}
</style>
<path class="st0" d="M125,0.3L125,0.3c68.9,0,124.7,55.8,124.7,124.7l0,0c0,68.9-55.8,124.7-124.7,124.7l0,0
	C56.1,249.7,0.3,193.9,0.3,125l0,0C0.3,56.1,56.1,0.3,125,0.3z"/>
<g>
	<path class="st1" d="M249.6,119.1l-5.3-1.2l5.1-1.9c0-0.3-0.1-0.7-0.1-1l-6.3,2.4L238.3,96l8.2,0.8c-0.1-0.3-0.2-0.7-0.3-1L238,95
		l-8-37.3c-0.5-0.8-1-1.6-1.5-2.3l0,0L63.6,76.1L203,35.3h0.1l4.3-3.9c-0.3-0.2-0.5-0.4-0.8-0.7l-4,3.7L63.9,74.9l117-61.4
		c-0.4-0.2-0.7-0.4-1.1-0.5L61.5,75.1l36.9-40.8l79-22.5c-0.5-0.2-0.9-0.4-1.4-0.6l-75.3,21.4L139,5.8l2.7-0.7l20,0.7
		c-1.3-0.4-2.6-0.8-4-1.1l-16.5-0.6l2.6-2.4c-0.4-0.1-0.9-0.1-1.3-0.2l-2.8,2.6l-0.1,0.1l-12.8-3.9c-0.5,0-1.1,0-1.6,0
		c-0.6,0-1.2,0-1.8,0l15.1,4.6L45,29.9l0,0l0,0l0,0l-0.1-0.2c-0.7,0.6-1.5,1.3-2.2,1.9l1.7-0.5L58,77.2l-48.6,1
		c-0.1,0.3-0.3,0.7-0.4,1l48.7-1l-33.8,51.6L2.5,101.4c-0.1,0.4-0.2,0.9-0.3,1.3l20.4,27l-22.3-6.1c0,0.3,0,0.7,0,1l24.9,6.8
		l-0.7-0.9l34.7-52.9l183.1,40.8v0.1l0.2-0.1l7,1.6C249.6,119.8,249.6,119.4,249.6,119.1z M136.1,6.5l-38.6,27L47.8,30L136.1,6.5z
		 M59,76.6h-0.2L45.1,30.9l51.7,3.6L59,76.6L59,76.6z M228.7,56.4l0.1,0.5V57l0,0l8.2,37.8L63.6,77.1L228.7,56.4z M67,78.4
		l170.3,17.5l4.7,21.5L67,78.4z"/>
	<path class="st2" d="M139.2,2.9l-0.4-1.8c-0.7-0.1-1.3-0.1-2-0.2l1.5,2.4L139.2,2.9z"/>
	<path class="st1" d="M203.1,35.6l24.7,18.8c-0.6-0.9-1.3-1.8-1.9-2.7l-22.1-16.8L203.1,35.6z"/>
</g>
<g>
	<circle id="Oval_00000082358041471975856890000007157376926807344556_" class="st3" cx="177" cy="70" r="3"/>
	<circle id="Oval_00000078031350382423531000000004071890518980393398_" class="st3" cx="180" cy="46" r="2"/>
	<circle id="Oval_00000058573624905625760930000015793813082663450042_" class="st3" cx="105" cy="59" r="2"/>
	<circle id="Oval_00000083795168789724783230000011610452983233105067_" class="st3" cx="203.5" cy="78.5" r="1.5"/>
</g>
<path class="st4" d="M125,0.3L125,0.3c68.9,0,124.7,55.8,124.7,124.7l0,0c0,68.9-55.8,124.7-124.7,124.7l0,0
	C56.1,249.7,0.3,193.9,0.3,125l0,0C0.3,56.1,56.1,0.3,125,0.3z"/>
<g id="Group-6" transform="translate(85.000000, 60.000000)">
	<circle id="Oval_00000139982965119669765310000005955083235805140378_" class="st5" cx="40" cy="40" r="40"/>
</g>
<g class="st6">
	<path d="M115,200.2c-1.7,0-2.8-1.4-2.8-3c0-1.8,1.1-3.3,2.9-3.3c1.7,0,2.8,1.4,2.8,3C118,198.8,116.8,200.2,115,200.2z
		 M115.1,194.7c-1.3,0-2.1,1.1-2.1,2.4c0,1.4,0.8,2.4,2,2.4c1.3,0,2.1-1.1,2.1-2.4C117.1,195.7,116.4,194.7,115.1,194.7z"/>
	<path d="M124.6,194.5c-0.2,0.3-0.4,0.9-0.6,1.3l-2.3,4.8c-0.2,0.4-0.6,1.3-0.7,1.5l-0.8-0.4c0.3-0.4,0.7-1.4,1-2l2.3-4.8h-1.7
		c-0.8,0-1.5,0-2.2,0c0-0.2,0.1-0.6,0.1-0.8c0.8,0,1.3,0,2.2,0c0.9,0,1.6,0,2.4,0L124.6,194.5z"/>
	<path d="M129.1,192.9l-2.3,8.3c-0.2,0.5-0.3,1.1-0.5,1.7l-0.8,0.1c0.3-0.9,0.4-1.5,0.8-2.8l1.8-6.5c0.3-1.1,0.5-1.8,0.7-2.5
		c0.2,0,0.5,0,0.8,0C129.5,191.4,129.2,192.4,129.1,192.9z"/>
	<path d="M132.1,200c0-0.4,0-1.5,0-2.1v-3l-1.3,0.3l-0.1-0.7c0.6-0.1,1.2-0.3,1.5-0.4l0.6-0.2l0.1,0.1c0,0.2,0,1.1,0,1.4v3.3
		c0,0.4,0,1,0,1.2L132.1,200L132.1,200z"/>
	<path d="M136.8,200c0-0.4,0-1.5,0-2.1v-3l-1.3,0.3l-0.1-0.7c0.6-0.1,1.2-0.3,1.5-0.4l0.6-0.2l0.1,0.1c0,0.2,0,1.1,0,1.4v3.3
		c0,0.4,0,1,0,1.2L136.8,200L136.8,200z"/>
</g>
<g class="st6">
	<path d="M45,156.9c0-2.6,2-4.7,4.8-4.7c0.7,0,1.5,0.1,2,0.4l0.5-0.4h0.5l-0.5,2.9h-0.5c-0.4-1.4-1-2.2-1.8-2.2
		c-1.6,0-2.6,2.5-2.6,4.2c0,1.6,0.9,2.1,1.8,2.1c0.1,0,0.3,0,0.4,0l0.5-2.1l-1-0.3l0.1-0.4h3.7l-0.1,0.4l-0.8,0.3l-0.6,3H51
		l-0.8-0.5c-0.5,0.4-1.2,0.6-1.9,0.6C46.3,160.2,45,158.8,45,156.9z"/>
	<path d="M53.4,156.9c0-2.3,1.8-4.8,4.5-4.8c2.4,0,3.4,1.4,3.4,3.2c0,2.3-1.8,4.8-4.5,4.8C54.5,160.2,53.4,158.8,53.4,156.9z
		 M59.2,154.6c0-1.2-0.5-1.7-1.2-1.7c-1.6,0-2.3,3.2-2.3,4.9c0,1.2,0.5,1.7,1.2,1.7C58.4,159.5,59.2,156.3,59.2,154.6z"/>
	<path d="M62.8,153.1l-0.9-0.3l0.1-0.4h4.3l-0.1,0.4l-1.2,0.3l0.8,4.9l2.6-4.8l-0.9-0.5l0.1-0.4h3l-0.1,0.4l-1,0.5l-4,6.8h-1.3
		L62.8,153.1z"/>
	<path d="M69.3,159.6l1.1-0.3l1.3-6.2l-1-0.3l0.1-0.4h6.8l-0.5,2.6l-0.4,0.1l-0.5-1.1c-0.3-0.7-0.5-0.8-1.3-0.9h-1.1l-0.6,2.9h0.3
		c0.7,0,0.9-0.1,1.3-0.9l0.2-0.4h0.4l-0.7,3.2h-0.4l-0.1-0.4c-0.1-0.8-0.2-0.9-0.9-0.9H73l-0.6,2.8l1.3-0.1c0.7,0,1.1-0.3,1.7-0.8
		l1.1-1h0.3l-0.6,2.5h-7.1L69.3,159.6z"/>
	<path d="M77.1,159.6l1.1-0.3l1.3-6.2l-1-0.3l0.1-0.4h4c1.9,0,2.8,0.6,2.8,1.8c0,1-0.6,1.9-2.7,2.1v0.2c1,0.3,1.3,0.6,1.5,1.5
		c0.1,0.6,0.2,1,0.3,1.2c0.2,0.2,0.4,0.4,0.7,0.5l-0.1,0.4h-1.6c-0.9,0-1.1-0.3-1.3-1.3l-0.2-1.1c-0.1-0.7-0.4-0.9-1.1-0.9h-0.1
		l-0.6,2.6l1,0.3l-0.1,0.4H77L77.1,159.6z M81.5,156c1.3-0.1,1.8-1.1,1.8-1.9c0-0.7-0.3-1.1-1.4-1.1h-0.3l-0.6,3H81.5z"/>
	<path d="M90.9,158.7l-2.1-4.5h-0.1l-1,4.9l0.9,0.4l-0.1,0.4h-3.1l0.1-0.4l1.1-0.4l1.3-5.9l-0.9-0.4l0.1-0.4h3.2l0.6,1.3l1.6,3.6
		h0.1l0.9-4l-0.9-0.4l0.1-0.4h3.1l-0.1,0.4l-1.1,0.4l-1.5,6.8h-1.5L90.9,158.7z"/>
	<path d="M94.3,159.6l1-0.4l3.9-6.9h1.6l1.1,7l0.9,0.3l-0.1,0.4h-3.9l0.1-0.4l1-0.3l-0.2-1.7h-2.4l-0.9,1.6l0.8,0.4L97,160h-2.8
		L94.3,159.6z M99.5,156.9l-0.4-2.9H99l-1.5,2.9H99.5z"/>
	<path d="M108.6,158.7l-2.1-4.5h-0.1l-1,4.9l0.9,0.4l-0.1,0.4H103l0.1-0.4l1.1-0.4l1.3-5.9l-0.9-0.4l0.1-0.4h3.2l0.6,1.3l1.6,3.6
		h0.1l0.9-4l-0.9-0.4l0.1-0.4h3.1l-0.1,0.4l-1.1,0.4l-1.5,6.8h-1.5L108.6,158.7z"/>
	<path d="M113.1,156.9c0-2.5,2-4.7,4.8-4.7c0.8,0,1.5,0.1,2,0.4l0.5-0.4h0.4l-0.5,3.1h-0.5c-0.4-1.7-0.9-2.4-1.9-2.4
		c-1.7,0-2.5,2.5-2.5,4.1c0,1.9,1,2.4,1.8,2.4c0.2,0,0.5,0,0.7-0.1l1.6-2l0.4,0.2l-0.5,2.2c-0.6,0.3-1.5,0.4-2.3,0.4
		C114.9,160.2,113.1,159.3,113.1,156.9z"/>
	<path d="M120.3,159.6l1.1-0.3l1.3-6.2l-1-0.3l0.1-0.4h6.8l-0.5,2.6l-0.4,0.1l-0.5-1.1c-0.3-0.7-0.5-0.8-1.3-0.9h-1.1l-0.6,2.9h0.3
		c0.7,0,0.9-0.1,1.3-0.9l0.2-0.4h0.4l-0.7,3.2h-0.4l-0.1-0.4c-0.1-0.8-0.2-0.9-0.9-0.9H124l-0.6,2.8l1.3-0.1c0.7,0,1.1-0.3,1.7-0.8
		l1.1-1h0.3l-0.6,2.5h-7.1L120.3,159.6z"/>
	<path d="M130.3,159.6l1-0.4l3.9-6.9h1.6l1.1,7l0.9,0.3l-0.1,0.4h-3.9l0.1-0.4l1-0.3l-0.2-1.7h-2.4l-0.9,1.6l0.8,0.4L133,160h-2.8
		L130.3,159.6z M135.5,156.9l-0.4-2.9H135l-1.5,2.9H135.5z"/>
	<path d="M144.6,158.7l-2.1-4.5h-0.1l-1,4.9l0.9,0.4l-0.1,0.4H139l0.1-0.4l1.1-0.4l1.3-5.9l-0.9-0.4l0.1-0.4h3.2l0.6,1.3l1.6,3.6
		h0.1l0.9-4l-0.9-0.4l0.1-0.4h3.1l-0.1,0.4l-1.1,0.4l-1.5,6.8h-1.5L144.6,158.7z"/>
	<path d="M148.3,159.6l1.1-0.3l1.3-6.2l-1-0.3l0.1-0.4h3.1c2.9,0,4.2,1,4.2,3c0,2.5-1.6,4.6-5.5,4.6h-3.4L148.3,159.6z M152.1,159.3
		c2-0.1,2.9-2.6,2.9-4.2c0-1.2-0.5-2-1.7-2.1h-0.4l-1.4,6.4L152.1,159.3z"/>
	<path d="M159.7,159.6l1.1-0.3l1.3-6.2l-1-0.3l0.1-0.4h3.6c2.1,0,3,0.7,3,2c0,1.4-1.1,2.6-3.4,2.6c-0.4,0-0.7,0-1-0.1l-0.5,2.4
		l1.1,0.3l-0.1,0.4h-4.4L159.7,159.6z M165.7,154.2c0-0.8-0.3-1.1-1.2-1.2h-0.3l-0.7,3.2h0.3C165.2,156.2,165.7,155.1,165.7,154.2z"
		/>
	<path d="M168.9,156.6l0.8-3.6l-1-0.3l0.1-0.4h4.2l-0.1,0.4l-1.1,0.3l-0.9,4.1c-0.3,1.3,0.2,2,1.4,2s1.8-1,2-2l0.9-4.1l-0.8-0.4
		l0.1-0.4h2.9l-0.1,0.4l-1.1,0.4l-1,4.5c-0.3,1.4-1.4,2.5-3.4,2.5C169.2,160.2,168.4,158.9,168.9,156.6z"/>
	<path d="M176.1,159.6l1.1-0.3l1.3-6.2l-1-0.3l0.1-0.4h3.7c1.9,0,2.8,0.6,2.8,1.6c0,1.1-0.9,1.8-2.5,1.9v0.2c1.3,0.2,2,0.8,2,1.7
		c0,1.1-0.8,2.2-3.5,2.2H176L176.1,159.6z M181.5,157.5c0-0.8-0.4-1.2-1.3-1.2h-0.3l-0.7,3c0.2,0.1,0.4,0.1,0.7,0.1
		C181.1,159.4,181.5,158.3,181.5,157.5z M180.4,155.7c1.3-0.1,1.7-0.9,1.7-1.7c0-0.7-0.4-1-1.2-1h-0.3l-0.6,2.8L180.4,155.7z"/>
	<path d="M184,159.6l1.1-0.3l1.3-6.2l-1-0.3l0.1-0.4h4.2l-0.1,0.4l-1.1,0.3l-1.3,6.2h0.9c0.7,0,1.2-0.3,1.8-1l1.1-1.2h0.3l-0.8,2.8
		h-6.6L184,159.6z"/>
	<path d="M191.5,159.6l1.1-0.3l1.3-6.2l-1-0.3l0.1-0.4h4.2l-0.1,0.4l-1.1,0.3l-1.3,6.2l1,0.3l-0.1,0.4h-4.2L191.5,159.6z"/>
	<path d="M197.3,156.9c0-2.5,2-4.7,4.8-4.7c0.8,0,1.5,0.1,2,0.4l0.5-0.4h0.4l-0.5,3.1H204c-0.4-1.7-0.9-2.4-1.9-2.4
		c-1.7,0-2.5,2.5-2.5,4.1c0,1.9,1,2.4,1.8,2.4c0.2,0,0.5,0,0.7-0.1l1.6-2l0.4,0.2l-0.5,2.2c-0.6,0.3-1.5,0.4-2.3,0.4
		C199.1,160.2,197.3,159.3,197.3,156.9z"/>
</g>
<g class="st6">
	<path d="M55,171.3h0.5c0.4,1.6,1.1,2.2,2.1,2.2c0.8,0,1.2-0.5,1.2-1.1c0-0.7-0.4-0.9-1.4-1.5c-0.9-0.5-1.7-1-1.7-2.3
		s1.2-2.4,2.8-2.4c0.7,0,1.3,0.2,1.8,0.5l0.5-0.5h0.5l-0.3,2.5h-0.5c-0.4-1.3-0.9-1.9-1.8-1.9c-0.6,0-1.1,0.4-1.1,1.1
		c0,0.6,0.4,0.8,1.4,1.4c0.9,0.5,1.7,0.9,1.7,2.2c0,1.5-1.2,2.6-2.9,2.6c-0.9,0-1.7-0.2-2.3-0.5l-0.4,0.5h-0.5L55,171.3z"/>
	<path d="M61,173.6l1.1-0.3l1.3-6.2l-1-0.3l0.1-0.4h6.8l-0.5,2.6l-0.4,0.1l-0.5-1.1c-0.3-0.7-0.5-0.8-1.3-0.9h-1.1l-0.6,2.9h0.3
		c0.7,0,0.9-0.1,1.3-0.9l0.2-0.4h0.4l-0.7,3.2H66l-0.1-0.4c-0.1-0.8-0.2-0.9-0.9-0.9h-0.3l-0.6,2.8l1.3-0.1c0.7,0,1.1-0.3,1.7-0.8
		l1.1-1h0.3l-0.6,2.5h-7.1L61,173.6z"/>
	<path d="M69.7,170.9c0-2.5,2-4.7,4.8-4.7c0.8,0,1.5,0.1,2,0.4l0.5-0.4h0.4l-0.5,3.1h-0.5c-0.4-1.7-0.9-2.4-1.9-2.4
		c-1.7,0-2.5,2.5-2.5,4.1c0,1.9,1,2.4,1.8,2.4c0.2,0,0.5,0,0.7-0.1l1.6-2l0.4,0.2l-0.5,2.2c-0.6,0.3-1.5,0.4-2.3,0.4
		C71.5,174.2,69.7,173.3,69.7,170.9z"/>
	<path d="M78.5,173.6l1.2-0.3L81,167h-0.3c-0.4,0-0.6,0.1-1.5,1.1l-1.2,1.2l-0.4-0.1l0.8-2.9h7.2l-0.2,2.9l-0.4,0.1l-0.7-1.2
		c-0.5-0.9-0.7-1.1-1.1-1.1H83l-1.3,6.3l1.1,0.3l-0.1,0.4h-4.4L78.5,173.6z"/>
	<path d="M86,170.9c0-2.3,1.8-4.8,4.5-4.8c2.4,0,3.4,1.4,3.4,3.2c0,2.3-1.8,4.8-4.5,4.8C87,174.2,86,172.8,86,170.9z M91.7,168.6
		c0-1.2-0.5-1.7-1.2-1.7c-1.6,0-2.3,3.2-2.3,4.9c0,1.2,0.5,1.7,1.2,1.7C91,173.5,91.7,170.3,91.7,168.6z"/>
	<path d="M93.9,173.6l1.1-0.3l1.3-6.2l-1-0.3l0.1-0.4h4c1.9,0,2.8,0.6,2.8,1.8c0,1-0.6,1.9-2.7,2.1v0.2c1,0.3,1.3,0.6,1.5,1.5
		c0.1,0.6,0.2,1,0.3,1.2c0.2,0.2,0.4,0.4,0.7,0.5v0.3h-1.6c-0.9,0-1.1-0.3-1.3-1.3l-0.2-1.1c-0.1-0.7-0.4-0.9-1.1-0.9h-0.1l-0.6,2.6
		l1,0.3L98,174h-4.2L93.9,173.6z M98.4,170c1.3-0.1,1.8-1.1,1.8-1.9c0-0.7-0.3-1.1-1.4-1.1h-0.3l-0.6,3H98.4z"/>
	<path d="M104.7,173.6l1.2-0.4l1.3-6.1l-1-0.3l0.1-0.4h3.7l0.1,1.2l0.4,4h0.2l2.2-4.1l0.6-1.2h3.8l-0.1,0.4l-1.1,0.3l-1.3,6.2l1,0.3
		l-0.1,0.4h-4l0.1-0.4l1-0.3l1.2-5.6h-0.2l-3.4,6.3h-1.3l-0.9-6.3H108l-1.2,5.5l0.9,0.4l-0.1,0.4h-3.1L104.7,173.6z"/>
	<path d="M116.1,173.6l1-0.4l3.9-6.9h1.6l1.1,7l0.9,0.3l-0.1,0.4h-3.9l0.1-0.4l1-0.3l-0.2-1.7h-2.4l-0.9,1.6l0.8,0.4l-0.1,0.4H116
		L116.1,173.6z M121.3,170.9l-0.4-2.9h-0.1l-1.5,2.9H121.3z"/>
	<path d="M130.3,172.7l-2.1-4.5h-0.1l-1,4.9l0.9,0.4l-0.1,0.4h-3.1l0.1-0.4l1.1-0.4l1.3-5.9l-0.9-0.4l0.1-0.4h3.2l0.6,1.3l1.6,3.6
		h0.1l0.9-4l-0.9-0.4l0.1-0.4h3.1l-0.1,0.4l-1.1,0.4l-1.5,6.8H131L130.3,172.7z"/>
	<path d="M133.7,173.6l1-0.4l3.9-6.9h1.6l1.1,7l0.9,0.3l-0.1,0.4h-3.9l0.1-0.4l1-0.3l-0.2-1.7h-2.4l-0.9,1.6l0.8,0.4l-0.1,0.4h-2.8
		L133.7,173.6z M138.9,170.9l-0.4-2.9h-0.1l-1.5,2.9H138.9z"/>
	<path d="M143,170.9c0-2.6,2-4.7,4.8-4.7c0.7,0,1.5,0.1,2,0.4l0.5-0.4h0.5l-0.5,2.9h-0.5c-0.4-1.4-1-2.2-1.8-2.2
		c-1.6,0-2.6,2.5-2.6,4.2c0,1.6,0.9,2.1,1.8,2.1c0.1,0,0.3,0,0.4,0l0.5-2.1l-1-0.3l0.1-0.4h3.7l-0.1,0.4l-0.8,0.3l-0.6,3H149
		l-0.8-0.5c-0.5,0.4-1.2,0.6-1.9,0.6C144.2,174.2,143,172.8,143,170.9z"/>
	<path d="M150.5,173.6l1.1-0.3l1.3-6.2l-1-0.3l0.1-0.4h6.8l-0.5,2.6l-0.4,0.1l-0.5-1.1c-0.3-0.7-0.5-0.8-1.3-0.9H155l-0.6,2.9h0.3
		c0.7,0,0.9-0.1,1.3-0.9l0.2-0.4h0.4l-0.7,3.2h-0.4l-0.1-0.4c-0.1-0.8-0.2-0.9-0.9-0.9h-0.3l-0.6,2.8l1.3-0.1c0.7,0,1.1-0.3,1.7-0.8
		l1.1-1h0.3l-0.6,2.5h-7.1L150.5,173.6z"/>
	<path d="M158.4,173.6l1.2-0.4l1.3-6.1l-1-0.3l0.1-0.4h3.7l0.1,1.2l0.4,4h0.2l2.2-4.1l0.6-1.2h3.8l-0.1,0.4l-1.1,0.3l-1.3,6.2l1,0.3
		l-0.1,0.4h-4l0.1-0.4l1-0.3l1.2-5.6h-0.2L164,174h-1.3l-0.9-6.3h-0.2l-1.2,5.5l0.9,0.4l-0.1,0.4h-3.1L158.4,173.6z"/>
	<path d="M170,173.6l1.1-0.3l1.3-6.2l-1-0.3l0.1-0.4h6.8l-0.5,2.6l-0.4,0.1l-0.5-1.1c-0.3-0.7-0.5-0.8-1.3-0.9h-1.1l-0.6,2.9h0.3
		c0.7,0,0.9-0.1,1.3-0.9l0.2-0.4h0.4l-0.7,3.2H175l-0.1-0.4c-0.1-0.8-0.2-0.9-0.9-0.9h-0.3l-0.6,2.8l1.3-0.1c0.7,0,1.1-0.3,1.7-0.8
		l1.1-1h0.3l-0.6,2.5h-7.1L170,173.6z"/>
	<path d="M183.3,172.7l-2.1-4.5h-0.1l-1,4.9l0.9,0.4l-0.1,0.4h-3.1l0.1-0.4l1.1-0.4l1.3-5.9l-0.9-0.4l0.1-0.4h3.2l0.6,1.3l1.6,3.6
		h0.1l0.9-4l-0.9-0.4l0.1-0.4h3.1l-0.1,0.4l-1.1,0.4l-1.5,6.8H184L183.3,172.7z"/>
	<path d="M188.7,173.6l1.2-0.3l1.3-6.3h-0.3c-0.4,0-0.6,0.1-1.5,1.1l-1.2,1.2l-0.4-0.1l0.8-2.9h7.2l-0.2,2.9l-0.4,0.1l-0.7-1.2
		c-0.5-0.9-0.7-1.1-1.1-1.1h-0.2l-1.3,6.3l1.1,0.3v0.4h-4.4L188.7,173.6z"/>
</g>
<path id="Shape" class="st0" d="M125,90.3c1,0,1.9-0.8,1.9-1.9c0-1-0.8-1.9-1.9-1.9s-1.9,0.8-1.9,1.9C123.1,89.4,124,90.3,125,90.3z
	 M125,87.7c0.4,0,0.7,0.3,0.7,0.7c0,0.4-0.3,0.7-0.7,0.7s-0.7-0.3-0.7-0.7S124.6,87.7,125,87.7z"/>
<path id="Shape_00000109736144872339088330000014202382569200098190_" class="st0" d="M144.4,116.2h-0.7v-2c0-0.3-0.3-0.6-0.6-0.6
	h-2v-2c0-0.3-0.3-0.6-0.6-0.6h-0.7V98.1h0.7c0.3,0,0.6-0.3,0.6-0.6v-2h2c0.3,0,0.6-0.3,0.6-0.6v-2.6c0-0.3-0.3-0.6-0.6-0.6H142
	l-16.7-11.6c-0.2-0.1-0.5-0.1-0.7,0L108,91.7h-1.1c-0.3,0-0.6,0.3-0.6,0.6v2.6c0,0.3,0.3,0.6,0.6,0.6h2v2c0,0.3,0.3,0.6,0.6,0.6h0.7
	V111h-0.7c-0.3,0-0.6,0.3-0.6,0.6v2h-2c-0.3,0-0.6,0.3-0.6,0.6v2h-0.7c-0.3,0-0.6,0.3-0.6,0.6v2.6c0,0.3,0.3,0.6,0.6,0.6h38.8
	c0.3,0,0.6-0.3,0.6-0.6v-2.6C145,116.5,144.7,116.2,144.4,116.2L144.4,116.2z M139.9,113.6h-5.3v-1.4h5.3V113.6z M135.9,111V98.1
	h2.7V111H135.9z M139.9,96.9h-5.3v-1.4h5.3V96.9z M134.1,98.1h0.7V111h-0.7c-0.3,0-0.6,0.3-0.6,0.6v2h-4.7v-2c0-0.3-0.3-0.6-0.6-0.6
	h-0.7V98.1h0.7c0.3,0,0.6-0.3,0.6-0.6v-2h4.7v2C133.5,97.8,133.7,98.1,134.1,98.1z M122.4,95.5h5.3v1.4h-5.3V95.5z M123.6,98.1h2.7
	V111h-2.7V98.1z M127.6,112.2v1.4h-5.3v-1.4H127.6z M107.5,92.9h0.7l0,0l0,0h9.5c0.3,0,0.6-0.3,0.6-0.6c0-0.3-0.3-0.6-0.6-0.6h-7.6
	L125,81.3l14.9,10.4H120c-0.3,0-0.6,0.3-0.6,0.6c0,0.3,0.3,0.6,0.6,0.6h21.8l0,0h0.7v1.4h-35.1L107.5,92.9L107.5,92.9z M110.1,95.5
	h5.3v1.4h-5.3V95.5z M114.1,98.1V111h-2.7V98.1H114.1z M110.1,112.2h5.3v1.4h-5.3V112.2z M115.9,111h-0.7V98.1h0.7
	c0.3,0,0.6-0.3,0.6-0.6v-2h4.7v2c0,0.3,0.3,0.6,0.6,0.6h0.7V111h-0.7c-0.3,0-0.6,0.3-0.6,0.6v2h-4.7v-2
	C116.5,111.3,116.3,111,115.9,111z M107.5,114.8h35.1v1.4h-35.1C107.5,116.2,107.5,114.8,107.5,114.8z M143.8,118.8h-37.7v-1.4h37.7
	V118.8z"/>
</svg>
