<svg enable-background="new 0 0 250 250" viewBox="0 0 250 250" xmlns="http://www.w3.org/2000/svg"><path d="m125 .3c68.9 0 124.7 55.8 124.7 124.7s-55.8 124.7-124.7 124.7-124.7-55.8-124.7-124.7 55.8-124.7 124.7-124.7z" fill="#fff"/><path d="m249.6 119.1-5.3-1.2 5.1-1.9c0-.3-.1-.7-.1-1l-6.3 2.4-4.7-21.4 8.2.8c-.1-.3-.2-.7-.3-1l-8.2-.8-8-37.3c-.5-.8-1-1.6-1.5-2.3l-164.9 20.7 139.4-40.8h.1l4.3-3.9c-.3-.2-.5-.4-.8-.7l-4 3.7-138.7 40.5 117-61.4c-.4-.2-.7-.4-1.1-.5l-118.3 62.1 36.9-40.8 79-22.5c-.5-.2-.9-.4-1.4-.6l-75.3 21.4 38.3-26.8 2.7-.7 20 .7c-1.3-.4-2.6-.8-4-1.1l-16.5-.6 2.6-2.4c-.4-.1-.9-.1-1.3-.2l-2.8 2.6-.1.1-12.8-3.9c-.5 0-1.1 0-1.6 0-.6 0-1.2 0-1.8 0l15.1 4.6-93.5 25-.1-.2c-.7.6-1.5 1.3-2.2 1.9l1.7-.5 13.6 46.1-48.6 1c-.1.3-.3.7-.4 1l48.7-1-33.8 51.6-21.4-28.4c-.1.4-.2.9-.3 1.3l20.4 27-22.3-6.1v1l24.9 6.8-.7-.9 34.7-52.9 183.1 40.8v.1l.2-.1 7 1.6c.1-.2.1-.6.1-.9zm-113.5-112.6-38.6 27-49.7-3.5zm-77.1 70.1h-.2l-13.7-45.7 51.7 3.6zm169.7-20.2.1.5v.1l8.2 37.8-173.4-17.7zm-161.7 22 170.3 17.5 4.7 21.5z" fill="#e5f1d4"/><path d="m203.1 35.6 24.7 18.8c-.6-.9-1.3-1.8-1.9-2.7l-22.1-16.8z" fill="#e5f1d4"/><path d="m125 .3c68.9 0 124.7 55.8 124.7 124.7s-55.8 124.7-124.7 124.7-124.7-55.8-124.7-124.7 55.8-124.7 124.7-124.7z" fill="none" stroke="#8dc63f" stroke-width=".67"/><g clip-rule="evenodd" fill="#e5f1d4" fill-rule="evenodd" transform="matrix(-1 0 0 -1 205 80)"><circle cx="28" cy="10" r="3"/><circle cx="25" cy="34" r="2"/><circle cx="100" cy="21" r="2"/><circle cx="1.5" cy="1.5" r="1.5"/><circle cx="81" cy="5" r="2"/></g><circle clip-rule="evenodd" cx="125" cy="100" fill="#8dc63f" fill-rule="evenodd" r="40"/><g enable-background="new"><path d="m112.3 200.2c-1.7 0-2.8-1.4-2.8-3 0-1.8 1.1-3.3 2.9-3.3 1.7 0 2.8 1.4 2.8 3 0 1.9-1.1 3.3-2.9 3.3zm.1-5.5c-1.3 0-2.1 1.1-2.1 2.4 0 1.4.8 2.4 2 2.4 1.3 0 2.1-1.1 2.1-2.4 0-1.4-.8-2.4-2-2.4z"/><path d="m118.4 200c0-.4 0-1.5 0-2.1v-3l-1.3.3-.1-.7c.6-.1 1.2-.3 1.5-.4l.6-.2.1.1v1.4 3.3 1.2z"/><path d="m124.6 192.9-2.3 8.3c-.2.5-.3 1.1-.5 1.7l-.8.1c.3-.9.4-1.5.8-2.8l1.8-6.5c.3-1.1.5-1.8.7-2.5h.8c-.1.2-.3 1.2-.5 1.7z"/><path d="m127.7 200c0-.4 0-1.5 0-2.1v-3l-1.3.3-.1-.7c.6-.1 1.2-.3 1.5-.4l.6-.2.1.1v1.4 3.3 1.2z"/><path d="m132.4 200c0-.4 0-1.5 0-2.1v-3l-1.3.3-.1-.7c.6-.1 1.2-.3 1.5-.4l.6-.2.1.1v1.4 3.3 1.2z"/></g><g enable-background="new"><path d="m63.4 159.6 1-.4 3.9-6.9h1.6l1.1 7 .9.3-.1.4h-3.9l.1-.4 1-.3-.2-1.7h-2.4l-.9 1.6.8.4-.1.4h-2.8zm5.3-2.7-.4-2.9h-.1l-1.5 2.9z"/><path d="m72.7 156.9c0-2.6 2-4.7 4.8-4.7.7 0 1.5.1 2 .4l.5-.4h.5l-.5 2.9h-.5c-.4-1.4-1-2.2-1.8-2.2-1.6 0-2.6 2.5-2.6 4.2 0 1.6.9 2.1 1.8 2.1h.4l.5-2.1-1-.3.1-.4h3.7l-.1.4-.8.3-.6 3h-.4l-.8-.5c-.5.4-1.2.6-1.9.6-2 0-3.3-1.4-3.3-3.3z"/><path d="m80.3 159.6 1.1-.3 1.3-6.2-1-.3.1-.4h4c1.9 0 2.8.6 2.8 1.8 0 1-.6 1.9-2.7 2.1v.2c1 .3 1.3.6 1.5 1.5.1.6.2 1 .3 1.2.2.2.4.4.7.5l-.1.4h-1.6c-.9 0-1.1-.3-1.3-1.3l-.2-1.1c-.1-.7-.4-.9-1.1-.9h-.1l-.6 2.6 1 .3-.1.4h-4.2zm4.4-3.6c1.3-.1 1.8-1.1 1.8-1.9 0-.7-.3-1.1-1.4-1.1h-.3l-.6 3z"/><path d="m88.7 159.6 1.1-.3 1.3-6.2-1-.3.1-.4h4.2l-.1.4-1.1.3-1.3 6.2 1 .3-.1.4h-4.2z"/><path d="m94.5 156.9c0-2.5 2-4.7 4.8-4.7.8 0 1.5.1 2 .4l.5-.4h.4l-.5 3.1h-.5c-.4-1.7-.9-2.4-1.9-2.4-1.7 0-2.5 2.5-2.5 4.1 0 1.9 1 2.4 1.8 2.4.2 0 .5 0 .7-.1l1.6-2 .4.2-.5 2.2c-.6.3-1.5.4-2.3.4-2.2.1-4-.8-4-3.2z"/><path d="m103.2 156.6.8-3.6-1-.3.1-.4h4.2l-.1.4-1.1.3-.9 4.1c-.3 1.3.2 2 1.4 2s1.8-1 2-2l.9-4.1-.8-.4.1-.4h2.9l-.1.4-1.1.4-1 4.5c-.3 1.4-1.4 2.5-3.4 2.5-2.5.2-3.4-1.1-2.9-3.4z"/><path d="m110.5 159.6 1.1-.3 1.3-6.2-1-.3.1-.4h4.2l-.1.4-1.1.3-1.3 6.2h.9c.7 0 1.2-.3 1.8-1l1.1-1.2h.3l-.8 2.8h-6.6z"/><path d="m118.8 159.6 1.2-.3 1.3-6.3h-.3c-.4 0-.6.1-1.5 1.1l-1.2 1.2-.4-.1.8-2.9h7.2l-.2 2.9-.4.1-.7-1.2c-.5-.9-.7-1.1-1.1-1.1h-.2l-1.3 6.3 1.1.3-.1.4h-4.4z"/><path d="m127 156.6.8-3.6-1-.3.1-.4h4.2l-.1.4-1.1.3-.9 4.1c-.3 1.3.2 2 1.4 2s1.8-1 2-2l.9-4.1-.8-.4.1-.4h2.9l-.1.4-1.1.4-1 4.5c-.3 1.4-1.4 2.5-3.4 2.5-2.5.2-3.4-1.1-2.9-3.4z"/><path d="m134.3 159.6 1.1-.3 1.3-6.2-1-.3.1-.4h4c1.9 0 2.8.6 2.8 1.8 0 1-.6 1.9-2.7 2.1v.2c1 .3 1.3.6 1.5 1.5.1.6.2 1 .3 1.2.2.2.4.4.7.5l-.1.4h-1.6c-.9 0-1.1-.3-1.3-1.3l-.2-1.1c-.1-.7-.4-.9-1.1-.9h-.1l-.6 2.6 1 .3-.1.4h-4.2zm4.4-3.6c1.3-.1 1.8-1.1 1.8-1.9 0-.7-.3-1.1-1.4-1.1h-.3l-.6 3z"/><path d="m142.6 159.6 1.1-.3 1.3-6.2-1-.3.1-.4h6.8l-.5 2.6h-.4l-.5-1.1c-.3-.7-.5-.8-1.3-.9h-1.1l-.6 2.9h.3c.7 0 .9-.1 1.3-.9l.2-.4h.4l-.7 3.2h-.4l-.1-.4c-.1-.8-.2-.9-.9-.9h-.3l-.6 2.8 1.3-.1c.7 0 1.1-.3 1.7-.8l1.1-1h.3l-.6 2.5h-7.1z"/><path d="m152.6 159.6 1-.4 3.9-6.9h1.6l1.1 7 .9.3-.1.4h-3.9l.1-.4 1-.3-.2-1.7h-2.4l-.9 1.6.8.4-.1.4h-2.8zm5.2-2.7-.4-2.9h-.1l-1.5 2.9z"/><path d="m166.9 158.7-2.1-4.5h-.1l-1 4.9.9.4-.1.4h-3.1l.1-.4 1.1-.4 1.3-5.9-.9-.4.1-.4h3.2l.6 1.3 1.6 3.6h.1l.9-4-.9-.4.1-.4h3.1l-.1.4-1.1.4-1.5 6.8h-1.5z"/><path d="m170.6 159.6 1.1-.3 1.3-6.2-1-.3.1-.4h3.1c2.9 0 4.2 1 4.2 3 0 2.5-1.6 4.6-5.5 4.6h-3.4zm3.8-.3c2-.1 2.9-2.6 2.9-4.2 0-1.2-.5-2-1.7-2.1h-.4l-1.4 6.4z"/></g><g enable-background="new"><path d="m73.3 173.6 1.1-.3 1.3-6.2-1-.3.1-.4h6.8l-.5 2.6-.4.1-.5-1.1c-.3-.6-.5-.8-1.3-.9h-1.1l-.6 3h.4c.6 0 .9-.2 1.2-.9l.2-.4h.4l-.7 3.2h-.4l-.1-.3c-.1-.7-.3-.9-.9-.9h-.4l-.5 2.6 1.1.3-.1.4h-4.3z"/><path d="m81.6 170.9c0-2.3 1.8-4.8 4.5-4.8 2.4 0 3.4 1.4 3.4 3.2 0 2.3-1.8 4.8-4.5 4.8-2.4.1-3.4-1.3-3.4-3.2zm5.7-2.3c0-1.2-.5-1.7-1.2-1.7-1.6 0-2.3 3.2-2.3 4.9 0 1.2.5 1.7 1.2 1.7 1.6 0 2.3-3.2 2.3-4.9z"/><path d="m90.4 170.9c0-2.3 1.8-4.8 4.5-4.8 2.4 0 3.4 1.4 3.4 3.2 0 2.3-1.8 4.8-4.5 4.8-2.3.1-3.4-1.3-3.4-3.2zm5.8-2.3c0-1.2-.5-1.7-1.2-1.7-1.6 0-2.3 3.2-2.3 4.9 0 1.2.5 1.7 1.2 1.7 1.5 0 2.3-3.2 2.3-4.9z"/><path d="m98.3 173.6 1.1-.3 1.3-6.2-1-.3.1-.4h3.1c2.9 0 4.2 1 4.2 3 0 2.5-1.6 4.6-5.5 4.6h-3.4zm3.8-.3c2-.1 2.9-2.6 2.9-4.2 0-1.2-.5-2-1.7-2.1h-.4l-1.4 6.4z"/><path d="m110.4 171.3h.5c.4 1.6 1.1 2.2 2.1 2.2.8 0 1.2-.5 1.2-1.1 0-.7-.4-.9-1.4-1.5-.9-.5-1.7-1-1.7-2.3s1.2-2.4 2.8-2.4c.7 0 1.3.2 1.8.5l.5-.5h.5l-.3 2.5h-.5c-.4-1.3-.9-1.9-1.8-1.9-.6 0-1.1.4-1.1 1.1 0 .6.4.8 1.4 1.4.9.5 1.7.9 1.7 2.2 0 1.5-1.2 2.6-2.9 2.6-.9 0-1.7-.2-2.3-.5l-.4.5h-.5z"/><path d="m116.4 173.6 1.1-.3 1.3-6.2-1-.3.1-.4h6.8l-.5 2.6-.4.1-.5-1.1c-.3-.7-.5-.8-1.3-.9h-1.1l-.6 2.9h.3c.7 0 .9-.1 1.3-.9l.2-.4h.4l-.7 3.2h-.4l-.1-.4c-.1-.8-.2-.9-.9-.9h-.3l-.6 2.8 1.3-.1c.7 0 1.1-.3 1.7-.8l1.1-1h.3l-.6 2.5h-7.1z"/><path d="m125.1 170.9c0-2.5 2-4.7 4.8-4.7.8 0 1.5.1 2 .4l.5-.4h.4l-.5 3.1h-.5c-.4-1.7-.9-2.4-1.9-2.4-1.7 0-2.5 2.5-2.5 4.1 0 1.9 1 2.4 1.8 2.4.2 0 .5 0 .7-.1l1.6-2 .4.2-.5 2.2c-.6.3-1.5.4-2.3.4-2.2.1-4-.8-4-3.2z"/><path d="m133.9 170.6.8-3.6-1-.3.1-.4h4.2l-.1.4-1.1.3-.9 4.1c-.3 1.3.2 2 1.4 2s1.8-1 2-2l.9-4.1-.8-.4.1-.4h2.9l-.1.4-1.1.4-1 4.5c-.3 1.4-1.4 2.5-3.4 2.5-2.6.2-3.4-1.1-2.9-3.4z"/><path d="m141.1 173.6 1.1-.3 1.3-6.2-1-.3.1-.4h4c1.9 0 2.8.6 2.8 1.8 0 1-.6 1.9-2.7 2.1v.2c1 .3 1.3.6 1.5 1.5.1.6.2 1 .3 1.2.2.2.4.4.7.5l-.1.4h-1.6c-.9 0-1.1-.3-1.3-1.3l-.2-1.1c-.1-.7-.4-.9-1.1-.9h-.1l-.6 2.6 1 .3-.1.4h-4.1zm4.5-3.6c1.3-.1 1.8-1.1 1.8-1.9 0-.7-.3-1.1-1.4-1.1h-.3l-.6 3z"/><path d="m149.5 173.6 1.1-.3 1.3-6.2-1-.3.1-.4h4.2l-.1.4-1.1.3-1.3 6.2 1 .3-.1.4h-4.2z"/><path d="m156.1 173.6 1.2-.3 1.3-6.3h-.3c-.4 0-.6.1-1.5 1.1l-1.2 1.2-.4-.1.8-2.9h7.2l-.2 2.9-.4.1-.7-1.2c-.5-.9-.7-1.1-1.1-1.1h-.2l-1.3 6.3 1.1.3-.1.4h-4.3z"/><path d="m164.4 173.6 1.1-.4.5-2.3-1.2-3.6-.9-.4.1-.4h4l-.1.4-.9.4.9 2.8 1.9-2.7-.7-.4.1-.4h2.8l-.1.4-.9.5-2.8 3.5-.5 2.4.9.4-.1.4h-4.1z"/></g><path d="m71.2 79.4c-2.5-2.5-2.4-6.6-2.4-6.8 0-.4.3-.6.6-.6.2 0 4.1 0 6.6 2.5.6.6 1.1 1.3 1.5 2.1v-3.3c-1.1-.1-4.1-.4-6.2-2.5-2.5-2.5-2.4-6.6-2.4-6.8 0-.4.3-.6.6-.6.2 0 4.1-.1 6.6 2.5.6.6 1.1 1.3 1.5 2.1v-2c-.7-.7-2.8-3.2-2.8-6.3 0-3.6 2.8-6.4 2.9-6.5.3-.3.6-.3.9 0 .1.1 2.9 2.9 2.9 6.5 0 3.1-2.1 5.6-2.8 6.3v2c.3-.8.9-1.5 1.5-2.1 2.5-2.5 6.4-2.5 6.6-2.5s.4.3.4.6c0 .2 0 4.2-2.4 6.8-2.1 2.1-5.1 2.5-6.2 2.5v3.3c.3-.8.9-1.5 1.5-2.1 2.4-2.5 6.4-2.5 6.5-2.5.3 0 .6.3.6.6 0 .2 0 4.2-2.4 6.8-2.1 2.1-5.1 2.5-6.2 2.5v3.3c.3-.8.9-1.5 1.5-2.1 2.5-2.5 6.4-2.5 6.6-2.5s.5.3.5.6c0 .2 0 4.2-2.4 6.8-2.1 2.1-5.1 2.5-6.2 2.5v3.9c0 .4-.3.7-.6.7s-.7-.3-.7-.6v-.1-3.9c-1.1-.1-4.1-.4-6.2-2.5-2.5-2.5-2.4-6.6-2.4-6.8 0-.4.3-.6.6-.6.2 0 4.1-.1 6.6 2.5.6.6 1 1.3 1.5 2.1v-3.3c-1.2-.2-4.3-.5-6.2-2.5zm3.8-4.1c-1.5-1.6-4-2-5.1-2.1.1 1.1.5 3.6 2.1 5.2s4 2 5.1 2.1c-.1-1.1-.5-3.6-2.1-5.2zm0-8.6c-1.5-1.6-4-2-5.1-2.1.1 1.1.5 3.6 2.1 5.2s4 2 5.1 2.1c-.1-1.1-.5-3.5-2.1-5.2zm8.9 3.2c1.5-1.6 2-4 2.1-5.2-1.1.1-3.5.5-5.1 2.1-1.5 1.6-2 4-2.1 5.2 1.1-.2 3.5-.5 5.1-2.1zm0 8.5c1.5-1.6 2-4 2.1-5.1-1.1.1-3.5.5-5.1 2.1-1.5 1.6-2 4-2.1 5.2 1.1-.2 3.5-.5 5.1-2.2zm0 8.6c1.5-1.6 2-4 2.1-5.2-1.1.1-3.5.5-5.1 2.1-1.5 1.6-2 4-2.1 5.2 1.1-.1 3.5-.5 5.1-2.1zm-8.9-3.1c-1.5-1.6-4-2-5.1-2.1.1 1.2.6 3.6 2.1 5.2s4 2 5.1 2.1c-.1-1.1-.5-3.6-2.1-5.2zm3-29.4c-.8.9-2.1 2.9-2.1 5.1s1.4 4.2 2.1 5.1c.8-.9 2.1-2.9 2.1-5.1s-1.5-4.2-2.1-5.1z" fill="#fff" transform="translate(47 26)"/></svg>