<svg enable-background="new 0 0 250 250" viewBox="0 0 250 250" xmlns="http://www.w3.org/2000/svg"><path d="m125 .3c68.9 0 124.7 55.8 124.7 124.7s-55.8 124.7-124.7 124.7-124.7-55.8-124.7-124.7 55.8-124.7 124.7-124.7z" fill="#fff"/><path d="m249.6 119.1-5.3-1.2 5.1-1.9c0-.3-.1-.7-.1-1l-6.3 2.4-4.7-21.4 8.2.8c-.1-.3-.2-.7-.3-1l-8.2-.8-8-37.3c-.5-.8-1-1.6-1.5-2.3l-164.9 20.7 139.4-40.8h.1l4.3-3.9c-.3-.2-.5-.4-.8-.7l-4 3.7-138.7 40.5 117-61.4c-.4-.2-.7-.4-1.1-.5l-118.3 62.1 36.9-40.8 79-22.5c-.5-.2-.9-.4-1.4-.6l-75.3 21.4 38.3-26.8 2.7-.7 20 .7c-1.3-.4-2.6-.8-4-1.1l-16.5-.6 2.6-2.4c-.4-.1-.9-.1-1.3-.2l-2.8 2.6-.1.1-12.8-3.9c-.5 0-1.1 0-1.6 0-.6 0-1.2 0-1.8 0l15.1 4.6-93.5 25-.1-.2c-.7.6-1.5 1.3-2.2 1.9l1.7-.5 13.6 46.1-48.6 1c-.1.3-.3.7-.4 1l48.7-1-33.8 51.6-21.4-28.4c-.1.4-.2.9-.3 1.3l20.4 27-22.3-6.1v1l24.9 6.8-.7-.9 34.7-52.9 183.1 40.8v.1l.2-.1 7 1.6c.1-.2.1-.6.1-.9zm-113.5-112.6-38.6 27-49.7-3.5zm-77.1 70.1h-.2l-13.7-45.7 51.7 3.6zm169.7-20.2.1.5v.1l8.2 37.8-173.4-17.7zm-161.7 22 170.3 17.5 4.7 21.5z" fill="#f2f7d6"/><g clip-rule="evenodd" fill="#f2f7d6" fill-rule="evenodd" transform="matrix(-1 0 0 -1 205 80)"><circle cx="28" cy="10" r="3"/><circle cx="25" cy="34" r="2"/><circle cx="100" cy="21" r="2"/><circle cx="1.5" cy="1.5" r="1.5"/><circle cx="81" cy="5" r="2"/></g><path d="m125 .3c68.9 0 124.7 55.8 124.7 124.7s-55.8 124.7-124.7 124.7-124.7-55.8-124.7-124.7 55.8-124.7 124.7-124.7z" fill="none" stroke="#c8da2d" stroke-width=".67"/><g clip-rule="evenodd" fill="#c8da2d" fill-rule="evenodd" opacity=".2" transform="matrix(-1 0 0 -1 205 80)"><circle cx="28" cy="10" r="3"/><circle cx="25" cy="34" r="2"/><circle cx="100" cy="21" r="2"/><circle cx="1.5" cy="1.5" r="1.5"/><circle cx="81" cy="5" r="2"/></g><circle clip-rule="evenodd" cx="125" cy="100" fill="#c8da2d" fill-rule="evenodd" r="40"/><g enable-background="new"><path d="m114.8 200.2c-1.7 0-2.8-1.4-2.8-3 0-1.8 1.1-3.3 2.9-3.3 1.7 0 2.8 1.4 2.8 3 .1 1.9-1 3.3-2.9 3.3zm.2-5.5c-1.3 0-2.1 1.1-2.1 2.4 0 1.4.8 2.4 2 2.4 1.3 0 2.1-1.1 2.1-2.4-.1-1.4-.8-2.4-2-2.4z"/><path d="m122.9 199.9v-.4h-.8c-.9 0-1.9 0-2.7 0l-.2-.6 3-3.9.8-1.1.7.1v1.4 3.4h1.2c0 .3-.1.4-.1.8h-1.2v1.1 1.3h-.9c.2-.6.2-1.5.2-2.1zm0-1.1v-3.6l-2.6 3.6z"/><path d="m129.2 192.9-2.3 8.3c-.2.5-.3 1.1-.5 1.7l-.8.1c.3-.9.4-1.5.8-2.8l1.8-6.5c.3-1.1.5-1.8.7-2.5h.8c0 .2-.3 1.2-.5 1.7z"/><path d="m132.3 200c0-.4 0-1.5 0-2.1v-3l-1.3.3-.1-.7c.6-.1 1.2-.3 1.5-.4l.6-.2.1.1v1.4 3.3 1.2z"/><path d="m137 200c0-.4 0-1.5 0-2.1v-3l-1.3.3-.1-.7c.6-.1 1.2-.3 1.5-.4l.6-.2.1.1v1.4 3.3 1.2z"/></g><g clip-rule="evenodd" fill="#fff" fill-rule="evenodd" transform="translate(104 80)"><path d="m6.6 20.6c-1.3 0-2.1-.3-2.2-.4-.3-.2-.5-.6-.3-.9.1-.3.5-.5.8-.3.1.1 2.9 1.2 6.7-1.7 2.4-1.9 3.6-4.8 3.2-8-.3-3.1-2.1-5.9-4.5-7.5-.2 1.1-1 2.9-3.4 4.6-.2.1-.4.3-.7.5-2.9 2-6.5 4.5-4.1 10.9.1.3 0 .7-.4.9-.3.1-.7 0-.9-.4-2.7-7.5 1.7-10.5 4.7-12.5.2-.2.5-.4.7-.6 3.2-2.3 3-4.4 3-4.5 0-.2.1-.5.3-.6.1-.1.4-.1.6 0 3.3 1.5 5.6 5.1 6.1 9 .4 3.7-1 7-3.7 9.2-2.4 1.8-4.5 2.3-5.9 2.3"/><path d="m18.2 18.5c-.5 0-.9.3-1.1.7l-.8 1.9c-.2.4-.1.8.1 1.1l2 2.9c0 .1.1.1.2.2l.4.7c.6.6.8 1.3.7 2.1l-.5 3.7c0 .3 0 .5.2.7l.8 1.3c.2.4.6.6 1 .6s.8-.2 1-.6c.3-.5.8-.9 1.4-1.1l.7-.2c.3-.1.5-.3.6-.5l1.3-2.2c.3-.4.6-.7 1-1l1.3-.6c.4-.2.6-.5.7-.9l.3-2.6c.1-.6-.3-1.2-.9-1.3l-.5-.1c-.4-.1-.8-.3-1.2-.7l-2.5-2.6c-.4-.4-1.1-.6-1.6-.4-.6.2-1.2.2-1.8-.1l-2.3-1c-.2 0-.4 0-.5 0zm3 17.3c-.9 0-1.7-.5-2.2-1.3l-.8-1.3c-.3-.5-.4-1-.3-1.6l.5-3.7c0-.4-.1-.7-.3-1l-.5-.5c-.1-.1-.2-.2-.3-.4l-2-2.9c-.5-.7-.6-1.6-.2-2.4l.8-1.9c.6-1.3 2-1.9 3.3-1.3l2.3 1c.3.1.6.1.8 0 1.1-.3 2.2-.1 3 .7l2.6 2.6c.2.2.3.3.5.3l.5.1c1.2.3 2.1 1.5 1.9 2.8l-.3 2.6c-.1.8-.6 1.6-1.4 2l-1.3.6c-.2.1-.4.3-.5.5l-1.3 2.2c-.3.5-.8.9-1.4 1.1l-.6.1c-.3.1-.5.3-.6.5-.5.7-1.3 1.2-2.2 1.2z"/><path d="m22.9 40c-10.6 0-19.1-8.6-19.1-19.2 0-1.2.1-2.4.3-3.5.4-2.2 1.2-4.3 2.3-6.3.2-.3.6-.4.9-.2s.4.6.2.9c-1.1 1.8-1.8 3.8-2.2 5.8-.2 1.1-.3 2.2-.3 3.3 0 9.8 8 17.9 17.8 17.9s17.8-8 17.8-17.9c0-9.8-8-17.9-17.8-17.9-1.7 0-3.3.2-4.9.7-.4.1-.8.2-1.1.4-.3.1-.7-.1-.9-.4-.1-.3.1-.7.4-.9.4-.1.8-.3 1.2-.4 1.7-.5 3.5-.7 5.2-.7 10.7 0 19.3 8.6 19.3 19.2s-8.6 19.2-19.1 19.2"/><path d="m37.9 26.2c-.2 0-.3-.1-.5-.2l-3-3.1c-.4-.4-.6-.9-.6-1.5l-.1-2.5c0-.4-.3-.8-.7-.9l-2.7-.5c-.5-.1-1-.4-1.4-.8l-1.1-1.5c-.2-.3-.6-.4-1-.3l-1.6.4c-.7.2-1.4 0-2-.4l-1.2-1c-.6-.5-.9-1.2-.8-1.9s.5-1.4 1.1-1.8c.2-.1.3-.2.4-.4l.9-2.1c.4-.8 1.2-1.3 2-1.3h3.3c.4 0 .7.3.7.7s-.3.7-.7.7h-3.3c-.4 0-.7.2-.8.5l-.9 2.1c-.2.4-.5.8-.9 1-.3.2-.4.4-.5.7 0 .3.1.6.3.8l1.2 1c.2.2.5.2.8.2l1.6-.4c.9-.3 1.8.1 2.4.8l1.1 1.5c.1.2.3.3.5.3l2.7.5c1 .2 1.8 1.1 1.8 2.2l.1 2.5c0 .2.1.4.3.6l3 3.1c.3.3.3.7 0 1-.1-.1-.3 0-.4 0"/></g><g enable-background="new"><path d="m77.9 166.6 1.1-.3 1.3-6.2-1-.3.1-.4h6.8l-.5 2.6-.4.1-.5-1.1c-.3-.7-.5-.8-1.3-.9h-1.1l-.6 2.9h.3c.7 0 .9-.1 1.3-.9l.2-.4h.4l-.7 3.2h-.3l-.1-.4c-.1-.8-.2-.9-.9-.9h-.3l-.6 2.8 1.3-.1c.7 0 1.1-.3 1.7-.8l1.1-1h.3l-.6 2.5h-7.1z"/><path d="m91.2 165.7-2.1-4.5h-.1l-1 4.9.9.4-.1.4h-3.1l.1-.4 1.1-.4 1.3-5.9-.9-.4.1-.4h3.2l.6 1.3 1.6 3.6h.1l.9-4-.9-.4.1-.4h3l-.1.4-1.1.4-1.5 6.8h-1.5z"/><path d="m97 160.1-.9-.3.1-.4h4.3l-.1.4-1.2.3.8 4.9 2.6-4.8-.9-.5.1-.4h3l-.1.4-1 .5-4 6.8h-1.3z"/><path d="m103.5 166.6 1.1-.3 1.3-6.2-1-.3.1-.4h4.2l-.1.4-1.1.3-1.3 6.2 1 .3-.1.4h-4.2z"/><path d="m108.4 166.6 1.1-.3 1.3-6.2-1-.3.1-.4h4c1.9 0 2.8.6 2.8 1.8 0 1-.6 1.9-2.7 2.1v.2c1 .3 1.3.6 1.5 1.5.1.6.2 1 .3 1.2.2.2.4.4.7.5l-.1.4h-1.6c-.9 0-1.1-.3-1.3-1.3l-.2-1.1c-.1-.7-.4-.9-1.1-.9h-.1l-.6 2.6 1 .3-.1.4h-4.2zm4.5-3.6c1.3-.1 1.8-1.1 1.8-1.9 0-.7-.3-1.1-1.4-1.1h-.3l-.6 3z"/><path d="m117.6 163.9c0-2.3 1.8-4.8 4.5-4.8 2.4 0 3.4 1.4 3.4 3.2 0 2.3-1.8 4.8-4.5 4.8-2.4.1-3.4-1.3-3.4-3.2zm5.7-2.3c0-1.2-.5-1.7-1.2-1.7-1.6 0-2.3 3.2-2.3 4.9 0 1.2.5 1.7 1.2 1.7 1.6 0 2.3-3.2 2.3-4.9z"/><path d="m130.9 165.7-2.1-4.5h-.1l-1 4.9.9.4-.1.4h-3.1l.1-.4 1.1-.4 1.3-5.9-.9-.4.1-.4h3.2l.6 1.3 1.6 3.6h.1l.9-4-.9-.4.1-.4h3.1l-.1.4-1.1.4-1.5 6.8h-1.5z"/><path d="m134.6 166.6 1.2-.4 1.3-6.1-1-.3.1-.4h3.7l.1 1.2.4 4h.2l2.2-4.1.6-1.2h3.8l-.1.4-1.1.3-1.3 6.2 1 .3-.1.4h-4l.1-.4 1-.3 1.2-5.6h-.2l-3.4 6.3h-1.3l-.9-6.3h-.2l-1.2 5.5.9.4-.1.4h-3.1z"/><path d="m146.2 166.6 1.1-.3 1.3-6.2-1-.3.1-.4h6.8l-.5 2.6-.4.1-.5-1.1c-.3-.7-.5-.8-1.3-.9h-1.1l-.6 2.9h.3c.7 0 .9-.1 1.3-.9l.2-.4h.4l-.7 3.2h-.4l-.1-.4c-.1-.8-.2-.9-.9-.9h-.2l-.6 2.8 1.3-.1c.7 0 1.1-.3 1.7-.8l1.1-1h.3l-.6 2.5h-7.1z"/><path d="m159.6 165.7-2.1-4.5h-.1l-1 4.9.9.4-.1.4h-3.2l.1-.4 1.1-.4 1.3-5.9-.9-.4.1-.4h3.2l.6 1.3 1.6 3.6h.1l.9-4-.9-.4.1-.4h3.1l-.1.4-1.1.4-1.5 6.8h-1.5z"/><path d="m165 166.6 1.2-.3 1.3-6.3h-.3c-.4 0-.6.1-1.5 1.1l-1.2 1.2-.4-.1.8-2.9h7.2l-.2 2.9-.4.1-.7-1.2c-.5-.9-.7-1.1-1.1-1.1h-.2l-1.3 6.3 1.1.3-.1.4h-4.4z"/></g></svg>